<?xml version="1.0" encoding="UTF-8" standalone="no"?>
<svg xmlns:rdf="http://www.w3.org/1999/02/22-rdf-syntax-ns#" xmlns="http://www.w3.org/2000/svg" xml:space="preserve" height="32.73" width="32.224" version="1.1" xmlns:cc="http://creativecommons.org/ns#" xmlns:dc="http://purl.org/dc/elements/1.1/" viewBox="0 0 32.224393 32.729999">
<polygon id="bgColor00" transform="matrix(1.6358 0 0 1 -30.191 -11.251)" points="30.034 16.511 30.275 16.534 30.517 16.578 30.76 16.622 31.002 16.666 31.222 16.71 31.465 16.754 31.684 16.798 31.927 16.864 31.795 16.731 31.64 16.622 31.486 16.511 31.31 16.401 31.53 16.269 31.728 16.115 31.904 15.962 32.036 15.807 32.146 15.653 32.234 15.477 32.278 15.301 32.301 15.125 32.257 14.839 32.125 14.575 31.927 14.333 31.662 14.112 31.332 13.892 30.958 13.694 30.517 13.54 30.034 13.408 29.439 12.021 29.395 12 29.285 11.955 29.131 11.889 28.911 11.823 28.888 11.735 28.867 11.625 28.801 11.537 28.713 11.449 28.603 11.361 28.47 11.317 28.295 11.273 28.096 11.251 27.898 11.273 27.744 11.295 27.591 11.361 27.502 11.427 27.414 11.493 27.348 11.581 27.326 11.669 27.303 11.758 27.172 11.802 27.04 11.867 26.908 11.933 26.776 12.021 26.292 13.364 25.785 13.496 25.323 13.672 24.927 13.87 24.575 14.091 24.289 14.31 24.091 14.575 23.959 14.839 23.914 15.125 23.936 15.301 23.98 15.477 24.068 15.653 24.178 15.807 24.31 15.962 24.486 16.115 24.684 16.269 24.905 16.401 24.728 16.511 24.575 16.622 24.421 16.731 24.289 16.842 24.531 16.798 24.751 16.731 24.993 16.687 25.213 16.643 25.455 16.599 25.676 16.578 25.918 16.534 26.137 16.511 26.38 16.468 26.622 16.445 26.864 16.424 27.106 16.401 27.348 16.401 27.591 16.38 27.833 16.38 28.074 16.38 28.316 16.38 28.581 16.38 28.823 16.401 29.065 16.401 29.307 16.424 29.55 16.445 29.792 16.468"/>
<polygon id="bgColor01" transform="matrix(1.6358 0 0 1 -30.191 -11.251)" points="24.178 19.505 24.068 19.659 23.98 19.835 23.936 20.011 23.914 20.187 23.936 20.342 23.98 20.517 24.047 20.672 24.135 20.803 24.245 20.958 24.398 21.09 24.552 21.221 24.728 21.354 24.575 22.102 24.377 22.85 24.112 23.555 23.804 24.26 23.474 24.942 23.099 25.602 22.725 26.24 22.33 26.856 21.933 27.428 21.559 27.958 21.185 28.464 20.833 28.926 20.524 29.344 20.239 29.719 20.018 30.049 19.843 30.312 19.556 30.841 19.292 31.369 19.072 31.941 18.852 32.536 18.698 33.13 18.565 33.768 18.477 34.406 18.456 35.045 18.456 35.155 18.456 35.264 18.456 35.353 18.456 35.463 18.5 35.882 18.544 36.3 18.632 36.718 18.719 37.114 18.939 37.841 19.248 38.545 19.6 39.205 19.997 39.844 20.459 40.46 20.987 41.01 21.537 41.538 22.153 42.022 22.814 42.463 23.496 42.837 24.222 43.189 24.993 43.453 25.785 43.695 26.599 43.849 27.436 43.937 28.295 43.981 29.087 43.96 29.857 43.871 30.584 43.739 31.31 43.563 32.014 43.321 32.697 43.035 33.335 42.726 33.952 42.352 34.546 41.956 35.096 41.515 35.602 41.032 36.087 40.525 36.505 39.975 36.879 39.426 37.231 38.808 37.517 38.192 37.803 37.444 38.002 36.652 38.111 35.859 38.155 35.045 38.134 34.385 38.067 33.768 37.958 33.174 37.803 32.58 37.583 32.008 37.319 31.413 36.989 30.797 36.615 30.158 36.373 29.806 36.108 29.41 35.778 28.969 35.426 28.485 35.052 27.979 34.656 27.451 34.237 26.879 33.842 26.306 33.445 25.69 33.071 25.095 32.719 24.479 32.388 23.842 32.102 23.224 31.86 22.631 31.662 22.014 31.552 21.442 31.552 21.442 31.53 21.42 31.486 21.398 31.465 21.376 31.662 21.244 31.816 21.112 31.97 20.98 32.081 20.826 32.169 20.672 32.234 20.517 32.278 20.342 32.301 20.187 32.278 20.011 32.234 19.835 32.146 19.659 32.036 19.505 31.904 19.351 31.728 19.197 31.53 19.065 31.31 18.932 31.53 18.801 31.728 18.646 31.904 18.492 32.036 18.339 32.146 18.184 32.234 18.009 32.278 17.832 32.301 17.656 32.278 17.436 32.213 17.238 32.081 17.04 31.927 16.864 31.684 16.798 31.465 16.754 31.222 16.71 31.002 16.666 30.76 16.622 30.517 16.578 30.275 16.534 30.034 16.511 29.792 16.468 29.55 16.445 29.307 16.424 29.065 16.401 28.823 16.401 28.581 16.38 28.316 16.38 28.074 16.38 27.833 16.38 27.591 16.38 27.348 16.401 27.106 16.401 26.864 16.424 26.622 16.445 26.38 16.468 26.137 16.511 25.918 16.534 25.676 16.578 25.455 16.599 25.213 16.643 24.993 16.687 24.751 16.731 24.531 16.798 24.289 16.842 24.135 17.04 24.003 17.238 23.936 17.436 23.914 17.656 23.936 17.832 23.98 18.009 24.068 18.184 24.178 18.339 24.31 18.492 24.486 18.646 24.684 18.801 24.905 18.932 24.684 19.065 24.486 19.197 24.31 19.351"/>
<polygon points="23.694 26.659 23.342 27.275 22.946 27.891 22.527 28.485 22.065 29.057 21.449 29.873 20.899 30.731 20.459 31.655 20.106 32.601 19.843 33.57 19.71 34.539 19.688 35.507 19.776 36.431 19.864 36.828 19.974 37.202 20.085 37.554 20.239 37.906 20.503 38.413 20.789 38.897 21.119 39.359 21.493 39.821 21.911 40.261 22.351 40.679 22.836 41.076 23.364 41.428 23.892 41.758 24.465 42.066 25.059 42.308 25.676 42.529 26.313 42.705 26.974 42.837 27.656 42.925 28.339 42.947 28.823 42.925 29.307 42.881 29.813 42.793 30.32 42.682 30.826 42.551 31.354 42.375 31.86 42.154 32.344 41.912 32.85 41.648 33.313 41.362 33.775 41.032 34.216 40.679 34.634 40.283 35.03 39.866 35.404 39.426 35.734 38.963 36.02 38.501 36.262 38.016 36.482 37.51 36.659 36.982 36.791 36.431 36.879 35.859 36.945 35.264 36.945 34.649 36.923 34.495 36.879 34.054 36.725 33.394 36.461 32.536 36.064 31.523 35.47 30.379 34.656 29.19 33.599 27.958 32.741 26.967 32.058 25.932 31.509 24.92 31.09 23.995 30.782 23.181 30.584 22.52 30.496 22.102 30.451 21.948 30.429 21.948 30.32 21.97 30.187 21.992 29.99 22.014 29.748 22.036 29.461 22.08 29.153 22.102 28.801 22.125 28.449 22.125 28.074 22.125 27.678 22.125 27.282 22.08 26.885 22.036 26.49 21.97 26.094 21.883 25.719 21.772 25.697 21.816 25.676 21.97 25.588 22.19 25.499 22.499 25.367 22.873 25.235 23.291 25.037 23.775 24.839 24.303 24.596 24.853 24.333 25.448 24.024 26.042" fill="#fff" transform="matrix(1.6358 0 0 1 -30.191 -11.251)"/>
<polygon id="bgColor03" transform="matrix(1.6358 0 0 1 -30.191 -11.251)" points="24.024 30.863 24.949 31.193 25.037 31.016 25.257 30.533 25.565 29.719 25.962 28.639 26.38 27.319 26.798 25.757 27.172 23.995 27.48 22.036 27.216 21.948 27.172 22.213 27.04 22.894 26.82 23.929 26.468 25.228 26.05 26.659 25.499 28.134 24.817 29.586"/>
<polygon id="bgColor02" transform="matrix(1.6358 0 0 1 -30.191 -11.251)" points="32.323 30.863 31.398 31.193 31.31 31.016 31.09 30.533 30.76 29.719 30.385 28.639 29.945 27.319 29.527 25.757 29.153 23.995 28.844 22.036 29.175 21.948 29.219 22.213 29.373 22.961 29.637 24.039 29.99 25.382 30.429 26.835 30.958 28.309 31.596 29.696"/>
<polygon id="bgColor04" transform="matrix(1.6358 0 0 1 -30.191 -11.251)" points="25.983 35.485 26.027 35.552 26.115 35.705 26.269 35.749 26.402 35.573 26.468 35.133 26.49 34.406 26.468 33.548 26.446 32.734 26.599 33.019 26.732 33.305 26.864 33.592 26.974 33.856 27.084 34.098 27.172 34.341 27.26 34.539 27.348 34.736 27.37 35.045 27.37 35.287 27.37 35.441 27.37 35.485 27.414 35.552 27.524 35.705 27.656 35.749 27.789 35.573 27.854 35.133 27.877 34.406 27.877 33.548 27.854 32.734 28.009 33.019 28.14 33.305 28.272 33.592 28.383 33.856 28.493 34.098 28.603 34.341 28.69 34.539 28.757 34.736 28.779 35.045 28.779 35.287 28.801 35.441 28.801 35.485 28.844 35.552 28.955 35.705 29.087 35.749 29.219 35.573 29.285 35.177 29.307 34.495 29.307 33.702 29.285 32.91 29.439 33.24 29.594 33.548 29.725 33.834 29.836 34.098 29.945 34.362 30.034 34.583 30.122 34.78 30.187 34.957 30.21 35.177 30.21 35.331 30.21 35.441 30.21 35.485 30.254 35.552 30.364 35.705 30.496 35.749 30.649 35.573 30.694 35.22 30.716 34.649 30.738 33.944 30.716 33.218 30.803 33.152 30.914 33.042 31.068 32.931 31.244 32.8 31.442 32.69 31.662 32.557 31.883 32.469 32.102 32.426 32.058 32.426 31.949 32.403 31.795 32.403 31.596 32.403 31.376 32.403 31.134 32.448 30.914 32.513 30.694 32.624 30.672 32.382 30.672 32.162 30.649 32.008 30.649 31.92 30.584 31.743 30.473 31.655 30.342 31.655 30.21 31.831 30.166 32.073 30.143 32.492 30.143 33.042 30.166 33.636 30.055 33.416 29.924 33.174 29.813 32.954 29.681 32.756 29.55 32.557 29.439 32.382 29.329 32.227 29.241 32.095 29.219 32.029 29.219 31.985 29.219 31.941 29.219 31.92 29.153 31.743 29.043 31.655 28.933 31.655 28.801 31.831 28.757 32.052 28.735 32.426 28.735 32.91 28.735 33.46 28.603 33.218 28.47 32.975 28.339 32.756 28.207 32.536 28.074 32.359 27.965 32.183 27.877 32.052 27.81 31.964 27.789 31.941 27.789 31.941 27.789 31.92 27.789 31.92 27.722 31.743 27.612 31.655 27.502 31.655 27.37 31.831 27.326 32.052 27.303 32.426 27.303 32.91 27.303 33.46 27.172 33.218 27.04 32.975 26.908 32.756 26.776 32.536 26.666 32.359 26.555 32.183 26.468 32.052 26.402 31.964 26.402 31.941 26.402 31.941 26.402 31.92 26.402 31.92 26.336 31.743 26.225 31.655 26.094 31.655 25.983 31.831 25.962 31.964 25.939 32.139 25.918 32.403 25.895 32.712 25.829 32.624 25.719 32.536 25.609 32.469 25.477 32.382 25.301 32.315 25.125 32.25 24.905 32.206 24.663 32.162 24.707 32.206 24.817 32.294 24.993 32.448 25.213 32.645 25.433 32.866 25.632 33.108 25.807 33.372 25.918 33.636 25.939 34.319 25.962 34.913 25.983 35.331"/>
<polygon points="25.653 20.738 25.323 20.54 25.102 20.364 24.993 20.231 24.949 20.187 25.015 20.21 25.169 20.275 25.455 20.342 25.829 20.429 26.313 20.517 26.908 20.605 27.568 20.649 28.339 20.649 28.757 20.628 29.153 20.584 29.506 20.496 29.836 20.385 30.122 20.21 30.364 20.011 30.54 19.747 30.628 19.439 30.649 19.461 30.716 19.527 30.826 19.615 30.936 19.725 31.046 19.857 31.134 20.033 31.2 20.187 31.222 20.364 31.2 20.54 31.112 20.693 30.936 20.87 30.672 21.002 30.275 21.112 29.769 21.2 29.131 21.265 28.339 21.288 27.436 21.244 26.71 21.112 26.115 20.936" fill="#fff" transform="matrix(1.6358 0 0 1 -30.191 -11.251)"/>
<polygon points="25.653 18.163 25.323 17.965 25.102 17.788 24.993 17.656 24.949 17.612 25.015 17.635 25.169 17.678 25.455 17.766 25.829 17.854 26.313 17.942 26.908 18.009 27.568 18.052 28.339 18.052 28.757 18.03 29.153 17.986 29.506 17.898 29.836 17.788 30.122 17.635 30.364 17.414 30.54 17.15 30.628 16.842 30.649 16.864 30.716 16.929 30.826 17.018 30.936 17.128 31.046 17.26 31.134 17.436 31.2 17.591 31.222 17.766 31.2 17.942 31.112 18.096 30.936 18.272 30.672 18.404 30.275 18.514 29.769 18.602 29.131 18.669 28.339 18.69 27.436 18.646 26.71 18.514 26.115 18.339" fill="#fff" transform="matrix(1.6358 0 0 1 -30.191 -11.251)"/>
<polygon points="25.653 15.565 25.323 15.367 25.102 15.191 24.993 15.058 24.949 15.014 25.015 15.037 25.169 15.081 25.455 15.169 25.829 15.257 26.313 15.345 26.908 15.411 27.568 15.455 28.339 15.477 28.757 15.455 29.153 15.411 29.506 15.323 29.836 15.213 30.122 15.037 30.364 14.839 30.54 14.575 30.628 14.266 30.649 14.288 30.716 14.354 30.826 14.442 30.936 14.552 31.046 14.684 31.134 14.839 31.2 15.014 31.222 15.191 31.2 15.345 31.112 15.521 30.936 15.675 30.672 15.807 30.275 15.917 29.769 16.006 29.131 16.071 28.339 16.094 27.436 16.05 26.71 15.917 26.115 15.741" fill="#fff" transform="matrix(1.6358 0 0 1 -30.191 -11.251)"/>
<polygon points="29.175 13.342 28.757 12.263 28.339 12.263 28.339 13.342" fill="#fff" transform="matrix(1.6358 0 0 1 -30.191 -11.251)"/>
<polygon id="bgColor05" transform="matrix(1.6358 0 0 1 -30.191 -11.251)" points="23.694 40.569 24.222 40.9 24.795 41.208 25.433 41.45 26.115 41.648 26.885 41.78 27.7 41.846 28.581 41.846 29.55 41.78 29.527 41.78 29.439 41.78 29.285 41.758 29.087 41.736 28.867 41.692 28.603 41.648 28.295 41.56 27.965 41.428 27.612 41.296 27.26 41.098 26.885 40.878 26.49 40.592 26.115 40.283 25.741 39.909 25.367 39.469 25.015 38.963 24.751 38.522 24.509 38.039 24.266 37.488 24.047 36.893 23.87 36.256 23.717 35.552 23.585 34.802 23.474 33.988 20.591 35.155 20.613 35.331 20.701 35.771 20.877 36.454 21.163 37.29 21.339 37.709 21.559 38.126 21.802 38.566 22.109 38.985 22.439 39.403 22.814 39.821 23.232 40.218"/>
</svg>
