<?xml version="1.0" encoding="UTF-8" standalone="no"?>
<svg xmlns="http://www.w3.org/2000/svg" xml:space="preserve" height="28.922" width="39.999" version="1.1" viewBox="0 0 39.999001 28.922001">
<path id="bgColor00" d="m38.065 0h-36.131c-1.066 0-1.934 0.868-1.934 1.934v25.054c0 1.066 0.868 1.934 1.934 1.934h36.131c1.066 0 1.934-0.867 1.934-1.934v-25.055c-0.001-1.066-0.868-1.933-1.934-1.933zm0.346 26.988c0 0.188-0.158 0.346-0.346 0.346h-36.131c-0.188 0-0.346-0.158-0.346-0.346v-25.055c0-0.188 0.158-0.346 0.346-0.346h36.131c0.188 0 0.346 0.158 0.346 0.346v25.055z"/>
<path id="bgColor01" d="m34.208 2.709h-28.418c-1.48 0-2.685 1.167-2.685 2.602v18.3c0 1.435 1.205 2.603 2.685 2.603h28.418c1.479 0 2.684-1.168 2.684-2.603v-18.3c0-1.435-1.204-2.602-2.684-2.602z"/>
<path opacity=".5" fill="#fff" d="m5.61 3.503h28.418c1.039 0 1.89 0.813 1.89 1.808v18.3c0 0.995-0.851 1.809-1.89 1.809h-28.418c-1.039 0-1.891-0.813-1.891-1.809v-18.3c0-0.996 0.852-1.808 1.891-1.808z"/>
<path id="bgColor02" d="m7.241 23.868c-0.438 0-0.794-0.355-0.794-0.794v-17.227c0-0.438 0.355-0.794 0.794-0.794s0.794 0.355 0.794 0.794v17.227c0 0.438-0.356 0.794-0.794 0.794z"/>
<path id="bgColor03" d="m11.518 23.868c-0.438 0-0.794-0.355-0.794-0.794v-17.227c0-0.438 0.355-0.794 0.794-0.794s0.794 0.355 0.794 0.794v17.227c0 0.438-0.356 0.794-0.794 0.794z"/>
<path id="bgColor04" d="m15.796 23.868c-0.438 0-0.794-0.355-0.794-0.794v-17.227c0-0.438 0.355-0.794 0.794-0.794s0.794 0.355 0.794 0.794v17.227c0 0.438-0.355 0.794-0.794 0.794z"/>
<path id="bgColor05" d="m20.075 23.868c-0.438 0-0.794-0.355-0.794-0.794v-17.227c0-0.438 0.355-0.794 0.794-0.794s0.794 0.355 0.794 0.794v17.227c0 0.438-0.356 0.794-0.794 0.794z"/>
<path id="bgColor06" d="m24.352 23.868c-0.438 0-0.794-0.355-0.794-0.794v-17.227c0-0.438 0.355-0.794 0.794-0.794s0.794 0.355 0.794 0.794v17.227c0 0.438-0.356 0.794-0.794 0.794z"/>
<path id="bgColor07" d="m28.63 23.868c-0.438 0-0.794-0.355-0.794-0.794v-17.227c0-0.438 0.355-0.794 0.794-0.794s0.794 0.355 0.794 0.794v17.227c0 0.438-0.355 0.794-0.794 0.794z"/>
<path id="bgColor08" d="m32.758 23.868c-0.438 0-0.794-0.355-0.794-0.794v-17.227c0-0.438 0.355-0.794 0.794-0.794s0.794 0.355 0.794 0.794v17.227c0 0.438-0.355 0.794-0.794 0.794z"/>
</svg>
