<?xml version="1.0" encoding="UTF-8" standalone="no"?>
<svg xmlns="http://www.w3.org/2000/svg" xml:space="preserve" height="40.239" width="20.898" version="1.1" viewBox="0 0 20.898001 40.238998">
<polygon id="bgColor00" points="21.217 9.6 20.72 9.175 20.083 8.821 19.445 8.608 18.737 8.538 18.028 8.608 17.32 8.821 16.753 9.175 16.186 9.6 15.761 10.096 15.407 10.734 15.194 11.371 15.124 12.08 15.124 38.433 14.628 38.858 14.203 39.354 13.848 39.85 13.494 40.417 13.282 40.984 13.069 41.622 12.999 42.259 12.927 42.968 13.069 44.101 13.352 45.234 13.92 46.226 14.628 47.077 15.478 47.785 16.469 48.351 17.603 48.635 18.737 48.777 19.87 48.635 21.004 48.351 21.925 47.785 22.775 47.077 23.483 46.226 24.05 45.234 24.334 44.101 24.475 42.968 24.404 42.259 24.334 41.622 24.121 40.984 23.908 40.417 23.554 39.85 23.2 39.354 22.775 38.858 22.279 38.433 22.279 12.08 22.208 11.371 21.996 10.734 21.641 10.096" transform="translate(-8.252 -8.538)"/>
<path fill="#fff" d="m14.665 33.792-0.071-0.638-0.212-0.566-0.354-0.567-0.283-0.425-0.354-0.354-0.425-0.283-0.425-0.283v-27.134l-0.143-0.779-0.425-0.709-0.708-0.425-0.779-0.142-0.425 0.07-0.426 0.071-0.354 0.213-0.283 0.212-0.283 0.354-0.213 0.354-0.07 0.354-0.07 0.425v27.133l-0.426 0.283-0.425 0.283-0.354 0.354-0.283 0.425-0.283 0.567-0.213 0.566-0.142 0.638-0.07 0.638 0.07 0.851 0.283 0.85 0.354 0.708 0.566 0.638 0.638 0.566 0.709 0.354 0.85 0.284 0.851 0.07 0.85-0.07 0.779-0.284 0.709-0.354 0.638-0.566 0.566-0.638 0.354-0.708 0.283-0.85 0.07-0.851-0.071-0.635zm-0.921 0.638-0.071 0.638-0.212 0.638-0.284 0.566-0.425 0.496-0.425 0.425-0.566 0.283-0.639 0.213-0.637 0.07l-0.638-0.07-0.638-0.213-0.566-0.283-0.496-0.425-0.426-0.496-0.283-0.566-0.212-0.638-0.071-0.638v-0.496l0.142-0.425 0.142-0.496 0.283-0.425 0.213-0.283 0.283-0.284 0.283-0.283 0.354-0.212 0.496-0.284v-13.886l0.07-0.496 0.284-0.425 0.354-0.213 0.425-0.07 0.354 0.07 0.354 0.213 0.283 0.354 0.071 0.567v13.885l0.496 0.284 0.354 0.212 0.284 0.283 0.283 0.284 0.212 0.283 0.284 0.425 0.142 0.496 0.142 0.425v0.497z"/>
<polygon opacity=".15" transform="translate(-8.252 -8.538)" points="19.8 25.894 19.728 25.327 19.445 24.973 19.091 24.76 18.737 24.69 18.312 24.76 17.958 24.973 17.674 25.398 17.603 25.894 17.603 39.779 17.107 40.063 16.753 40.275 16.469 40.558 16.186 40.843 15.973 41.126 15.69 41.551 15.549 42.047 15.407 42.471 15.407 42.968 15.478 43.605 15.69 44.243 15.973 44.809 16.399 45.305 16.895 45.73 17.462 46.013 18.099 46.226 18.737 46.297 19.374 46.226 20.012 46.013 20.579 45.73 21.004 45.305 21.428 44.809 21.713 44.243 21.925 43.605 21.996 42.968 21.996 42.471 21.854 42.047 21.713 41.551 21.428 41.126 21.217 40.843 20.933 40.558 20.649 40.275 20.296 40.063 19.8 39.779" fill="#fff"/>
<polygon id="bgColor01" points="8.323 12.788 8.393 12.929 8.535 13.001 8.748 13.071 13.211 13.071 13.424 13.001 13.565 12.929 13.636 12.788 13.707 12.576 13.636 12.363 13.565 12.221 13.424 12.15 13.211 12.08 8.748 12.08 8.535 12.15 8.393 12.221 8.323 12.363 8.252 12.576" transform="translate(-8.252 -8.538)"/>
<polygon id="bgColor02" points="10.519 17.251 10.59 17.392 10.802 17.464 10.944 17.535 13.211 17.535 13.424 17.464 13.565 17.392 13.636 17.251 13.707 17.039 13.636 16.826 13.565 16.684 13.424 16.614 13.211 16.543 10.944 16.543 10.802 16.614 10.59 16.684 10.519 16.826 10.448 17.039" transform="translate(-8.252 -8.538)"/>
<polygon id="bgColor03" points="8.323 21.643 8.393 21.785 8.535 21.856 8.748 21.927 13.211 21.927 13.424 21.856 13.565 21.785 13.636 21.643 13.707 21.431 13.636 21.219 13.565 21.077 13.424 21.006 13.211 20.935 8.748 20.935 8.535 21.006 8.393 21.077 8.323 21.219 8.252 21.431" transform="translate(-8.252 -8.538)"/>
<polygon id="bgColor04" points="10.519 26.106 10.59 26.248 10.802 26.319 10.944 26.39 13.211 26.39 13.424 26.319 13.565 26.248 13.636 26.106 13.707 25.894 13.636 25.681 13.565 25.54 13.424 25.469 13.211 25.398 10.944 25.398 10.802 25.469 10.59 25.54 10.519 25.681 10.448 25.894" transform="translate(-8.252 -8.538)"/>
<polygon id="bgColor05" points="8.323 30.499 8.393 30.64 8.535 30.712 8.748 30.782 13.211 30.782 13.424 30.712 13.565 30.64 13.636 30.499 13.707 30.287 13.636 30.074 13.565 29.932 13.424 29.861 13.211 29.791 8.748 29.791 8.535 29.861 8.393 29.932 8.323 30.074 8.252 30.287" transform="translate(-8.252 -8.538)"/>
<polygon id="bgColor06" points="10.519 34.962 10.59 35.103 10.802 35.175 10.944 35.245 13.211 35.245 13.424 35.175 13.565 35.103 13.636 34.962 13.707 34.75 13.636 34.537 13.565 34.395 13.424 34.325 13.211 34.254 10.944 34.254 10.802 34.325 10.59 34.395 10.519 34.537 10.448 34.75" transform="translate(-8.252 -8.538)"/>
<polygon id="bgColor012" points="23.838 12.788 23.908 12.929 24.05 13.001 24.262 13.071 28.655 13.071 28.868 13.001 29.01 12.929 29.08 12.788 29.15 12.576 29.08 12.363 29.01 12.221 28.868 12.15 28.655 12.08 24.262 12.08 24.05 12.15 23.908 12.221 23.838 12.363 23.766 12.576" transform="translate(-8.252 -8.538)"/>
<polygon id="bgColor07" points="23.838 17.251 23.908 17.392 24.05 17.464 24.262 17.535 26.459 17.535 26.672 17.464 26.813 17.392 26.884 17.251 26.955 17.039 26.884 16.826 26.813 16.684 26.672 16.614 26.459 16.543 24.262 16.543 24.05 16.614 23.908 16.684 23.838 16.826 23.766 17.039" transform="translate(-8.252 -8.538)"/>
<polygon id="bgColor08" points="23.838 21.643 23.908 21.785 24.05 21.856 24.262 21.927 28.655 21.927 28.868 21.856 29.01 21.785 29.08 21.643 29.15 21.431 29.08 21.219 29.01 21.077 28.868 21.006 28.655 20.935 24.262 20.935 24.05 21.006 23.908 21.077 23.838 21.219 23.766 21.431" transform="translate(-8.252 -8.538)"/>
<polygon id="bgColor09" points="23.838 26.106 23.908 26.248 24.05 26.319 24.262 26.39 26.459 26.39 26.672 26.319 26.813 26.248 26.884 26.106 26.955 25.894 26.884 25.681 26.813 25.54 26.672 25.469 26.459 25.398 24.262 25.398 24.05 25.469 23.908 25.54 23.838 25.681 23.766 25.894" transform="translate(-8.252 -8.538)"/>
<polygon id="bgColor010" points="23.838 30.499 23.908 30.64 24.05 30.712 24.262 30.782 28.655 30.782 28.868 30.712 29.01 30.64 29.08 30.499 29.15 30.287 29.08 30.074 29.01 29.932 28.868 29.861 28.655 29.791 24.262 29.791 24.05 29.861 23.908 29.932 23.838 30.074 23.766 30.287" transform="translate(-8.252 -8.538)"/>
<polygon id="bgColor011" points="23.838 34.962 23.908 35.103 24.05 35.175 24.262 35.245 26.459 35.245 26.672 35.175 26.813 35.103 26.884 34.962 26.955 34.75 26.884 34.537 26.813 34.395 26.672 34.325 26.459 34.254 24.262 34.254 24.05 34.325 23.908 34.395 23.838 34.537 23.766 34.75" transform="translate(-8.252 -8.538)"/>
</svg>
