<?xml version="1.0" encoding="UTF-8" standalone="no"?>
<svg xmlns:rdf="http://www.w3.org/1999/02/22-rdf-syntax-ns#" xmlns="http://www.w3.org/2000/svg" xml:space="preserve" overflow="visible" height="591.63" viewBox="0 0 591.625 591.626" width="591.62" version="1.0" enable-background="new 0 0 591.625 591.626" xmlns:cc="http://creativecommons.org/ns#" xmlns:xlink="http://www.w3.org/1999/xlink" xmlns:dc="http://purl.org/dc/elements/1.1/"><defs><linearGradient id="XMLID_2_" y2="-1.0527" gradientUnits="userSpaceOnUse" x2="218" y1="433.99" x1="218">
	<stop stop-color="#fff" offset="0"/>
	<stop stop-color="#C8D2D7" offset="1"/>
</linearGradient><linearGradient id="XMLID_18_" y2="279.07" gradientUnits="userSpaceOnUse" x2="502.13" y1="279.07" x1="55.98">
			<stop stop-color="#6B6B6B" offset="0"/>
			<stop stop-color="#7C7C7C" offset=".511"/>
			<stop stop-color="#717171" offset="1"/>
		</linearGradient><linearGradient id="XMLID_17_" y2="279.07" gradientUnits="userSpaceOnUse" x2="503.76" y1="279.07" x1="54.356">
			<stop stop-color="#717171" offset="0"/>
			<stop stop-color="#929292" offset=".511"/>
			<stop stop-color="#7C7C7C" offset="1"/>
		</linearGradient><linearGradient id="XMLID_16_" y2="279.07" gradientUnits="userSpaceOnUse" x2="505.38" y1="279.07" x1="52.732">
			<stop stop-color="#767676" offset="0"/>
			<stop stop-color="#A8A8A8" offset=".511"/>
			<stop stop-color="#878787" offset="1"/>
		</linearGradient><linearGradient id="XMLID_15_" y2="279.07" gradientUnits="userSpaceOnUse" x2="507" y1="279.07" x1="51.108">
			<stop stop-color="#7C7C7C" offset="0"/>
			<stop stop-color="#BDBDBD" offset=".511"/>
			<stop stop-color="#919191" offset="1"/>
		</linearGradient><linearGradient id="XMLID_14_" y2="279.08" gradientUnits="userSpaceOnUse" x2="508.62" y1="279.08" x1="49.484">
			<stop stop-color="#818181" offset="0"/>
			<stop stop-color="#D3D3D3" offset=".511"/>
			<stop stop-color="#9C9C9C" offset="1"/>
		</linearGradient><linearGradient id="XMLID_13_" y2="279.08" gradientUnits="userSpaceOnUse" x2="510.24" y1="279.08" x1="47.86">
			<stop stop-color="#878787" offset="0"/>
			<stop stop-color="#E9E9E9" offset=".511"/>
			<stop stop-color="#A7A7A7" offset="1"/>
		</linearGradient><radialGradient id="XMLID_10_" gradientUnits="userSpaceOnUse" cy="57.268" cx="218.07" r="532.65">
		<stop stop-color="#fff" offset=".0843"/>
		<stop stop-color="#FBFBFB" offset=".1386"/>
		<stop stop-color="#eee" offset=".1947"/>
		<stop stop-color="#DADADA" offset=".2514"/>
		<stop stop-color="#CFCFCF" offset=".2753"/>
		<stop stop-color="#BDBDBD" offset=".3249"/>
		<stop stop-color="#7E7E7E" offset=".5093"/>
		<stop stop-color="#505050" offset=".6653"/>
		<stop stop-color="#333" offset=".785"/>
		<stop stop-color="#292929" offset=".8539"/>
		<stop stop-color="#5C5C5C" offset="1"/>
	</radialGradient><linearGradient id="linearGradient3742" y2="478.22" xlink:href="#XMLID_11_" gradientUnits="userSpaceOnUse" x2="295.81" y1="-52.457" x1="295.81"/><linearGradient id="linearGradient3744" y2="478.15" xlink:href="#XMLID_12_" gradientUnits="userSpaceOnUse" x2="295.81" y1="-52.322" x1="295.81"/></defs>
<circle id="bgColor00" cx="218" transform="translate(76.532 71.41)" cy="218" r="218" fill="#fff"/>
	<linearGradient id="XMLID_7_" y2="478.15" gradientUnits="userSpaceOnUse" x2="295.81" y1="-52.322" x1="295.81">
		<stop stop-color="#4D4D4D" offset="0"/>
		<stop offset="1"/>
	</linearGradient>
	<path opacity=".05" d="m295.81 530.32c-129.51 0-234.5-105-234.5-234.51 0-129.52 104.99-234.51 234.5-234.51 129.5 0 234.52 104.99 234.52 234.51-0.01 129.52-105.02 234.51-234.52 234.51zm0.01-530.32c-163.11 0-295.82 132.71-295.82 295.82s132.71 295.81 295.82 295.81 295.8-132.7 295.8-295.81-132.69-295.82-295.8-295.82z" fill="url(#XMLID_7_)"/>
	<linearGradient id="XMLID_8_" y2="478.22" gradientUnits="userSpaceOnUse" x2="295.81" y1="-52.457" x1="295.81">
		<stop stop-color="#4D4D4D" offset="0"/>
		<stop offset="1"/>
	</linearGradient>
	<path opacity=".24" d="m295.81 530.32c-129.51 0-234.5-105-234.5-234.51 0-129.52 104.99-234.51 234.5-234.51 129.5 0 234.52 104.99 234.52 234.51-0.01 129.52-105.02 234.51-234.52 234.51zm0.01-527.48c-161.6 0-292.98 131.38-292.98 292.98s131.39 292.97 292.98 292.97 292.97-131.37 292.97-292.97-131.38-292.98-292.97-292.98z" fill="url(#XMLID_8_)"/>
	<linearGradient id="XMLID_9_" y2="478.25" gradientUnits="userSpaceOnUse" x2="295.81" y1="-52.524" x1="295.81">
		<stop stop-color="#4D4D4D" offset="0"/>
		<stop offset="1"/>
	</linearGradient>
	<path opacity=".43" d="m295.81 530.32c-129.51 0-234.5-105-234.5-234.51 0-129.52 104.99-234.51 234.5-234.51 129.5 0 234.52 104.99 234.52 234.51-0.01 129.52-105.02 234.51-234.52 234.51zm0.01-524.64c-160.08 0-290.14 130.05-290.14 290.14 0 160.08 130.06 290.13 290.14 290.13s290.13-130.05 290.13-290.13c0-160.09-130.06-290.14-290.13-290.14z" fill="url(#XMLID_9_)"/>
	<path opacity=".62" d="m295.81 530.32c-129.51 0-234.5-105-234.5-234.51 0-129.52 104.99-234.51 234.5-234.51 129.5 0 234.52 104.99 234.52 234.51-0.01 129.52-105.02 234.51-234.52 234.51zm0.01-521.8c-158.57 0-287.31 128.73-287.31 287.3s128.74 287.3 287.3 287.3 287.3-128.73 287.3-287.3-128.73-287.3-287.29-287.3z" fill="url(#XMLID_9_)"/>
	<linearGradient id="XMLID_11_" y2="478.22" gradientUnits="userSpaceOnUse" x2="295.81" y1="-52.457" x1="295.81">
		<stop stop-color="#4D4D4D" offset="0"/>
		<stop offset="1"/>
	</linearGradient>
	<path opacity=".81" d="m295.81 530.32c-129.51 0-234.5-105-234.5-234.51 0-129.52 104.99-234.51 234.5-234.51 129.5 0 234.52 104.99 234.52 234.51-0.01 129.52-105.02 234.51-234.52 234.51zm0-518.96c-157.05 0-284.46 127.4-284.46 284.46 0 157.05 127.41 284.46 284.46 284.46s284.46-127.41 284.46-284.46c0-157.06-127.41-284.46-284.46-284.46z" fill="url(#XMLID_11_)"/>
	<linearGradient id="XMLID_12_" y2="478.15" gradientUnits="userSpaceOnUse" x2="295.81" y1="-52.322" x1="295.81">
		<stop stop-color="#4D4D4D" offset="0"/>
		<stop offset="1"/>
	</linearGradient>
	<path d="m295.81 530.32c-129.51 0-234.5-105-234.5-234.51 0-129.52 104.99-234.51 234.5-234.51 129.5 0 234.52 104.99 234.52 234.51-0.01 129.52-105.02 234.51-234.52 234.51zm0-516.12c-155.54 0-281.62 126.08-281.62 281.62 0 155.53 126.09 281.62 281.62 281.62s281.62-126.09 281.62-281.62c0-155.54-126.09-281.62-281.62-281.62z" fill="url(#XMLID_12_)"/>
<g transform="translate(13.518 13.51)">
	<path d="m281.03 1.924c-154.15 0-279.11 124.97-279.11 279.1 0.004 154.14 124.96 279.1 279.11 279.1 154.12 0 279.07-124.96 279.07-279.1 0-154.13-124.95-279.1-279.07-279.1zm0 502.77c-123.55 0-223.68-100.14-223.68-223.67 0.003-123.52 100.13-223.66 223.68-223.66 123.51-0.004 223.66 100.14 223.66 223.66 0 123.53-100.15 223.67-223.66 223.67z" stroke="#7f7f7f" stroke-width="3.8476" fill="url(#XMLID_10_)"/>
	<path fill="#fff" d="m30.307 279.09c0-137.39 111.37-248.77 248.74-248.77v0.004c137.39 0 248.76 111.38 248.76 248.77 0 137.36-111.37 248.74-248.76 248.74-137.37 0-248.74-111.38-248.74-248.74h-0.003zm74.383-174.37c-44.621 44.62-72.229 106.26-72.229 174.37 0 68.09 27.607 129.72 72.229 174.35 44.63 44.63 106.27 72.23 174.36 72.23 68.1 0 129.74-27.6 174.37-72.23 44.62-44.63 72.24-106.26 72.24-174.35 0-68.11-27.62-129.75-72.24-174.37-44.63-44.631-106.27-72.229-174.37-72.229-68.09 0-129.74 27.598-174.36 72.229z"/>
	<path fill="url(#linearGradient3742)" d="m33.271 279.09c0.014-135.75 110.04-245.79 245.78-245.79v0.003c135.74 0 245.78 110.04 245.78 245.79 0 135.71-110.04 245.77-245.78 245.77s-245.76-110.06-245.78-245.77h0.001zm73.609-172.19c-44.085 44.05-71.319 104.93-71.319 172.18 0 67.24 27.234 128.1 71.319 172.19 44.06 44.04 104.93 71.3 172.17 71.3 67.27 0 128.12-27.26 172.19-71.3 44.05-44.09 71.32-104.95 71.32-172.19 0-67.26-27.27-128.13-71.32-172.18-44.07-44.08-104.92-71.326-172.19-71.326-67.24 0-128.11 27.246-172.17 71.326z"/>
		<path fill="url(#linearGradient3744)" d="m120.85 120.89c-40.475 40.5-65.524 96.39-65.524 158.18 0 61.8 25.049 117.7 65.524 158.21 40.51 40.49 96.43 65.52 158.2 65.52 61.8 0 117.7-25.03 158.2-65.52 40.49-40.51 65.53-96.41 65.53-158.21 0-61.79-25.04-117.68-65.53-158.18-40.5-40.499-96.4-65.532-158.2-65.532-61.8-0.001-117.69 25.033-158.2 65.532zm-74.614 158.18c0-128.58 104.24-232.81 232.81-232.81v0.001c128.6 0 232.81 104.23 232.81 232.81 0 128.59-104.21 232.82-232.81 232.82-128.57 0-232.81-104.23-232.81-232.82h-0.004z"/>
		<path fill="url(#XMLID_13_)" d="m121.95 121.99c-40.193 40.22-65.064 95.72-65.064 157.08 0 61.37 24.871 116.88 65.064 157.1 40.23 40.22 95.76 65.07 157.1 65.07 61.37 0 116.88-24.86 157.1-65.07 40.21-40.22 65.07-95.73 65.07-157.1 0-61.36-24.86-116.86-65.07-157.08-40.22-40.215-95.73-65.073-157.1-65.073s-116.87 24.858-157.1 65.073zm-74.09 157.08c0-127.68 103.51-231.18 231.19-231.19v0.003c127.7 0.002 231.19 103.51 231.19 231.19 0 127.69-103.49 231.2-231.19 231.2-127.68 0-231.19-103.51-231.19-231.2z"/>
		<path fill="url(#XMLID_14_)" d="m123.06 123.09c-39.921 39.94-64.614 95.05-64.614 155.98 0 60.94 24.693 116.06 64.614 156 39.94 39.93 95.07 64.61 155.99 64.61 60.94 0 116.06-24.68 156-64.61 39.93-39.94 64.61-95.07 64.61-156s-24.68-116.04-64.61-155.98c-39.94-39.931-95.06-64.613-156-64.613-60.94 0.001-116.05 24.683-155.99 64.613zm-73.576 155.98c0-126.78 102.79-229.56 229.57-229.56v-0.005c126.81 0.004 229.57 102.78 229.57 229.56v0.01c0 126.79-102.77 229.57-229.57 229.57-126.78 0.01-229.57-102.78-229.57-229.57h0.004z"/>
		<path fill="url(#XMLID_15_)" d="m124.16 124.19c-39.638 39.66-64.153 94.39-64.153 154.88 0 60.51 24.516 115.24 64.153 154.89 39.66 39.65 94.4 64.16 154.89 64.16 60.51 0 115.24-24.51 154.9-64.16 39.64-39.65 64.14-94.38 64.14-154.89 0-60.5-24.5-115.22-64.14-154.88-39.66-39.646-94.39-64.152-154.9-64.152s-115.23 24.506-154.89 64.152zm-73.052 154.88c0-125.89 102.06-227.94 227.94-227.94v-0.004c125.91 0.006 227.95 102.05 227.95 227.94 0 125.9-102.04 227.95-227.95 227.95-125.88 0-227.94-102.05-227.94-227.95h-0.002z"/>
		<path fill="url(#XMLID_16_)" d="m125.26 125.29c-39.356 39.38-63.694 93.72-63.694 153.78 0 60.07 24.338 114.42 63.694 153.79 39.38 39.37 93.73 63.7 153.79 63.7 60.08 0 114.42-24.33 153.8-63.7 39.36-39.37 63.68-93.72 63.68-153.79 0-60.06-24.32-114.4-63.68-153.78-39.38-39.361-93.72-63.692-153.8-63.692-60.07-0.001-114.41 24.331-153.79 63.692zm-72.528 153.78c0-124.99 101.33-226.31 226.32-226.32v-0.002c125.01 0.008 226.33 101.33 226.33 226.32 0 125-101.32 226.33-226.33 226.33-124.99 0-226.32-101.33-226.32-226.33h0.002z"/>
		<path fill="url(#XMLID_17_)" d="m126.37 126.39c-39.084 39.1-63.244 93.05-63.244 152.68 0 59.64 24.16 113.6 63.244 152.68 39.09 39.09 93.05 63.25 152.68 63.25 59.65 0 113.6-24.16 152.69-63.25 39.08-39.08 63.23-93.04 63.23-152.68 0-59.63-24.15-113.58-63.23-152.68-39.09-39.077-93.04-63.233-152.69-63.233-59.64 0-113.59 24.156-152.68 63.233zm-72.014 152.68c0-124.09 100.6-224.69 224.69-224.7 124.11 0.01 224.71 100.61 224.71 224.7 0 124.11-100.6 224.7-224.71 224.7-124.09 0-224.69-100.59-224.69-224.7h-0.004z"/>
		<path fill="url(#XMLID_18_)" d="m127.47 127.49c-38.801 38.82-62.784 92.38-62.784 151.58 0 59.21 23.982 112.78 62.784 151.58 38.81 38.81 92.37 62.79 151.58 62.79 59.22 0 112.78-23.98 151.59-62.79 38.8-38.8 62.77-92.37 62.77-151.58 0-59.2-23.97-112.76-62.77-151.58-38.81-38.793-92.37-62.773-151.59-62.773-59.21 0-112.77 23.981-151.58 62.773zm-71.491 151.58c0-123.19 99.881-223.07 223.07-223.08v0.001c123.22 0.012 223.08 99.889 223.08 223.08 0 123.21-99.86 223.08-223.08 223.08-123.19 0-223.07-99.87-223.07-223.08h-0.001z"/>
		<path fill="#666" d="m128.58 128.59c-38.529 38.54-62.334 91.71-62.334 150.48 0 58.78 23.805 111.96 62.334 150.47 38.52 38.53 91.69 62.34 150.47 62.34 58.79 0 111.96-23.81 150.49-62.34 38.51-38.51 62.31-91.69 62.31-150.47 0-58.77-23.8-111.94-62.31-150.48-38.53-38.508-91.7-62.313-150.49-62.313-58.78 0-111.95 23.805-150.47 62.313zm-70.976 150.48c0-122.29 99.146-221.44 221.45-221.46v0.003c122.32 0.014 221.46 99.167 221.46 221.46 0 122.31-99.14 221.46-221.46 221.46-122.3 0-221.45-99.15-221.45-221.46h0.004z"/>
</g><circle opacity=".30288" cx="218" transform="translate(76.532 79.094)" cy="218" r="218" fill="url(#XMLID_2_)"/></svg>
