<?xml version="1.0" encoding="UTF-8" standalone="no"?>
<svg xmlns="http://www.w3.org/2000/svg" width="146.65px" xml:space="preserve" height="187.62px" viewBox="0 0 146.648 187.621" baseProfile="tiny" version="1.2" y="0px" x="0px" xmlns:xlink="http://www.w3.org/1999/xlink">
<path d="m0 0" fill="none"/>
<g transform="translate(-26.676 -6.1898)">
	<path d="m131.62 7.343v48.438h-64.579v-48.438h64.579z" stroke="#000" stroke-width="2" fill="#F98E3F"/>
	<path d="m130.47 53.673l41.518 33.445 0.182 105.54h-144l-0.34-105.54 40.364-33.445h62.276z" stroke="#000" stroke-width="2" fill="#F98E3F"/>
	<line y2="89.194" stroke-width="2" x2="171.84" stroke="#000" y1="89.194" x1="28.275" fill="none"/>
	<path d="m123.05 54.69l40.895 33.208h6.919l-40.89-33.208h-6.92z" fill="#B95011"/>
	<path d="m75.606 54.69l-40.053 33.208h-6.919l40.052-33.208h6.92z" fill="#B95011"/>
	<path d="m83.136 54.69l-39.74 33.208h-9.227l40.895-33.208h8.072z" fill="#ED6513"/>
	<rect height="44.039" width="5.767" y="8.467" x="124.67" fill="#B95011"/>
	<rect height="44.039" width="5.766" y="8.467" x="67.751" fill="#B95011"/>
	<rect height="44.039" width="8.073" y="8.467" x="73.287" fill="#ED6513"/>
	<rect height="44.038" width="8.756" y="8.698" x="115.97" fill="#ED6513"/>
	<rect height="44.039" width="8.073" y="8.467" x="81.636" fill="#FEA970"/>
	<rect height="101.4" width="5.766" y="90.43" x="164.75" fill="#B95011"/>
	<rect height="101.4" width="5.766" y="90.116" x="29.003" fill="#B95011"/>
	<rect height="101.4" width="8.073" y="90.261" x="34.539" fill="#ED6513"/>
	<rect height="101.85" width="4.383" y="90.514" x="160.42" fill="#ED6513"/>
	<rect height="101.4" width="8.073" y="90.261" x="41.879" fill="#FEA970"/>
	<path d="m167.16 93.838v95.722h-133.32v-95.722h133.32z" fill="#A05104"/>
	<path d="m91.499 54.768l-39.741 33.208h-9.226l40.894-33.208h8.073z" fill="#FEA970"/>
	<path d="m48.121 189.23c-11.392-5.144-5.545-16.836-13.57-25.066 2.779 0.348 6.625 3.182 9.404 3.529-0.521-5.037-6.945-9.921-2.469-21.878 1.304 12.242 12.369 14.235 16.363 18.403 6.112-10.904 2.575-26.179-0.155-33.624 19.072 6.478 15.506 20.588 20.355 27.45 0.112 0-0.466-14.629 5.818-19.773-2.812 10.689 2.96 22.188 8.737 25.596 0.412-10.955 11.376-12.58 6.373-39.938 6.591 17.012 12.212 24.734 6.581 41.009 4.119-6.312 11.732-22.057 21.703-29.123-4.633 10.16-0.366 19.605-4.168 29.3-6.721 14.467 6.609-12.634 10.982-14.552-3.527 8.776 0.877 12.409 0.338 18.402 5.678-5.588 4.627-18.955 6.004-26.586 11.244 6.861 1.768 24.566 3.621 30.195 1.41-8.383 11.496-24.08 9.846-40.621 7.325 14.569-1.473 36.982-0.105 41.364 7.273-4.567 8.368-19.082 9.491-22.88 6.748 10.881 4.04 19.908-0.537 30.205-0.382 5.102 1.16 6.781 2.509 8.641 0 0-117.12 0.64-117.12-0.05h0.001z" stroke="#000" fill="#EF5307"/>
	<path d="m90.291 131.95c0.347-5.67-4.444-12.349-2.884-19.209 0.498-3.756 3.492-5.15 4.656-6.867-0.82 4.814 0.594 8.033 0.976 11.734 1.094 4.98-2.748 14.35-2.748 14.35z" stroke="#000" fill="#FC6C0C"/>
	<g transform="matrix(.80748 -.10221 .13595 1.074 75.386 18.504)">
		<path d="m84.837 120.38c0.415-5.093-5.309-11.091-3.446-17.254 0.595-3.375 4.171-4.627 5.563-6.168-0.981 4.324 0.709 7.216 1.166 10.539 1.307 4.46-3.283 12.88-3.283 12.88z" stroke="#000" fill="#FC6C0C"/>
	</g>
	<g transform="matrix(.78716 -.11561 .11561 .78716 2.884 29.228)">
		<g transform="translate(-13.055 -3.4141)">
			<g transform="matrix(.70093 .18828 -.25042 .93226 89.695 -1.3189)">
				<path d="m84.836 120.37c0.416-5.092-5.309-11.091-3.446-17.254 0.595-3.374 4.171-4.626 5.562-6.168-0.98 4.324 0.71 7.216 1.167 10.541 1.309 4.47-3.283 12.88-3.283 12.88z" stroke="#000" fill="#FC6C0C"/>
			</g>
		</g>
	</g>
	<path d="m53.171 150.85c0.256-4.191-7.433-11.768-6.28-16.838 0.368-2.775 2.581-3.807 3.441-5.075-0.606 3.558 1.571 4.806 1.853 7.541 0.809 3.68 0.986 14.37 0.986 14.37z" stroke="#000" fill="#FC6C0C"/>
	<path d="m59.229 188.55c-7.916-2.731-8.706-10.94-14.282-15.312 1.931 0.184 9.171 6.828 11.102 7.013-0.362-2.675 4.024-6.411-3.999-15.331 7.186-0.063 11.164 7.276 13.939 9.49 4.247-5.793-0.209-9.622 0.463-19.857 12.11 17.428 6.778 11.791 10.147 15.436 0.079 0 3.102-6.627 7.468-9.36-1.954 5.678-3.938 15.21 6.071 9.313 2.284-1.25 9.617-2.399 10.138-18.927 6.578 5.038 2.205 15.134-1.708 23.777 2.861-3.352 13.291-15.996 20.504-18.037-3.219 5.396-1.967 10.127-4.609 15.276-4.67 7.683-3.113 9.276-0.076 8.257 0 0 13.654-7.184 13.826-17.477 6.102 7.354-1.34 13.047-0.051 16.035 0.979-4.451 11.127-0.799 9.98-9.583 5.09 7.737-1.022 9.649-0.073 11.978 7.623-0.428 19.231-3.284 23.438-10.153 4.623 9.012-20.898 17.491-20.898 17.491s-81.391 0.34-81.391-0.03z" fill="#AD4613"/>
	<path d="m115.46 54.488l39.741 33.208h9.226l-40.894-33.208h-8.08z" fill="#ED6513"/>
</g>
</svg>
