<?xml version="1.0" encoding="UTF-8" standalone="no"?>
<svg xmlns="http://www.w3.org/2000/svg" width="161.8px" xml:space="preserve" height="108.28px" viewBox="0 0 161.797 108.283" baseProfile="tiny" version="1.2" y="0px" x="0px" xmlns:xlink="http://www.w3.org/1999/xlink">
<g transform="matrix(1.4388 0 0 .95944 31.881 -102.17)">
	<path d="m-17.216 212.49h87.68v-73.964l-87.779 0.047 0.099 73.91z" stroke="#000" stroke-width="2" fill="#C0C0C0"/>
	<rect height="3.453" width="78.463" y="138.76" x="-12.657" fill="#808080"/>
	<rect height="3.029" width="78.047" y="208.11" x="-12.491" fill="#808080"/>
	<rect height="3.842" width="77.887" y="172.22" x="-12.509" fill="#fff"/>
	<rect height="1.416" width="78.26" y="143.68" x="-12.519" fill="#808080"/>
	<rect height="1.646" width="78.496" y="205.9" x="-12.688" fill="#808080"/>
	<rect y="139.89" x="-13.503" height=".641" width="80.979"/>
	<rect y="209.45" x="-12.791" height=".641" width="80.821"/>
	<rect height="72.315" width="6.658" stroke="#000" y="139.09" x="-20.996" stroke-width="2"/>
	<rect height="12.609" width="7.752" y="141.63" x="-21.353" fill="#808080"/>
	<rect height="20.756" width="7.894" y="183.11" x="-21.485" fill="#C0C0C0"/>
	<rect height="6.61" width="7.87" y="202.99" x="-21.495" fill="#808080"/>
	<rect height="4.133" width="7.752" y="153.54" x="-21.316" fill="#fff"/>
	<rect height="3.609" width="7.75" y="196.79" x="-21.451" fill="#808080"/>
	<rect height="7.55" width="7.761" y="157.23" x="-21.4" fill="#C0C0C0"/>
	<rect height="1.96" width="7.689" y="165.85" x="-21.363" fill="#C0C0C0"/>
	<rect height="1.743" width="7.655" y="169" x="-21.305" fill="#C0C0C0"/>
	<rect height="4.954" width="7.812" y="177.53" x="-21.392" fill="#808080"/>
	<rect height="3.341" width="7.67" y="172.44" x="-21.318" fill="#808080"/>
	<g transform="matrix(.70808 0 0 1 43.754 74.88)">
		<rect height="72.316" width="9.403" stroke="#000" y="64.09" x="32.523" stroke-width="2"/>
		<rect height="12.609" width="10.949" y="66.626" x="32.017" fill="#808080"/>
		<rect height="20.756" width="11.149" y="108.11" x="31.832" fill="#C0C0C0"/>
		<rect height="6.609" width="11.116" y="127.99" x="31.817" fill="#808080"/>
		<rect height="4.134" width="10.948" y="78.543" x="32.07" fill="#fff"/>
		<rect height="3.609" width="10.945" y="121.79" x="31.88" fill="#808080"/>
		<rect height="7.55" width="10.961" y="82.226" x="31.952" fill="#C0C0C0"/>
		<rect height="1.96" width="10.859" y="90.848" x="32.003" fill="#C0C0C0"/>
		<rect height="1.743" width="10.809" y="93.997" x="32.086" fill="#C0C0C0"/>
		<rect height="4.953" width="11.033" y="102.53" x="31.963" fill="#808080"/>
		<rect height="3.341" width="10.831" y="97.439" x="32.068" fill="#808080"/>
	</g>
	<rect height="1.196" width="78.279" y="154.14" x="-12.593" fill="#808080"/>
	<rect height="2.212" width="78.463" y="151.87" x="-12.747" fill="#808080"/>
	<rect y="158.22" x="-13.271" height=".64" width="79.583"/>
	<rect y="203.45" x="-13.499" height=".64" width="79.784"/>
</g>
<path d="m143.45 15.085v90.894h-14v-90.895s9.68-3.935 14 0z" stroke="#000" stroke-width="1.936" fill="#C0C0C0"/>
<rect height="90.894" width="3.091" stroke="#000" y="14.994" x="140.54" stroke-width=".9097" fill="#808080"/>
<path d="m143.39 1v15c-6.287-4.262-14 0-14 0v-15h14z" stroke="#000" stroke-width="2" fill="#808080"/>
<line y2="105.22" stroke-width="5.3952" x2="55.196" stroke="#000" y1="105.22" x1="22.449" fill="none"/>
<line y2="102.22" stroke-width="2" x2="32.449" stroke="#000" y1="86.215" x1="32.449" fill="none"/>
<rect height="26" width="11.472" stroke="#000" y="30.215" x=".977" stroke-width="1.9554" fill="#808080"/>
<rect height="70.861" width="20" stroke="#000" y="30.215" x="109.45" stroke-width="1.9571" fill="#C0C0C0"/>
<g stroke="#000" stroke-width="2" fill="#C0C0C0" transform="translate(-29.551 -30.785)">
	<rect height="28" width="3.029" y="79" x="167.94"/>
	<path d="m170.59 90h2.271c0.628 0 1.137 0.672 1.137 1.5v3c0 0.829-0.509 1.5-1.137 1.5h-2.271c-0.627 0-1.136-0.671-1.136-1.5v-3c0.01-0.828 0.51-1.5 1.14-1.5z"/>
</g>
<rect height="73.526" width="11" stroke="#000" y="30.215" x="99.525" stroke-width="2.0211" fill="#808080"/>
<rect height="27" width="6" stroke="#000" y="76.215" x="103.45" stroke-width="2" fill="#C0C0C0"/>
<path d="m139.83 106.62h-24.465v-9.601h15.809" stroke="#000" stroke-width="1.0939" fill="#C0C0C0"/>
<rect height="1" width="15" stroke="#000" y="40.215" x="114.45" stroke-width="2" fill="#C0C0C0"/>
<rect height="1" width="15" stroke="#000" y="56.041" x="114.75" stroke-width="2" fill="#C0C0C0"/>
<rect height="1" width="15" stroke="#000" y="73.128" x="114.62" stroke-width="2" fill="#C0C0C0"/>
<rect height="1" width="15" stroke="#000" y="89.172" x="114.49" stroke-width="2" fill="#C0C0C0"/>
<line y2="55.215" stroke-width="2" x2="10.449" stroke="#000" y1="45.215" x1="10.449" fill="none"/>
<line y2="107.22" stroke-width="2.1355" x2="119.45" stroke="#000" y1="96.954" x1="119.45" fill="none"/>
<line y2="92.215" stroke-width="2" x2="109.45" stroke="#000" y1="92.215" x1="103.45" fill="none"/>
<line y2="99.215" stroke-width="2" x2="109.45" stroke="#000" y1="99.215" x1="102.45" fill="none"/>
<path d="m132.85 16.326v81.396l-3.397 0.447v-80.95s2.55-1.468 3.4-0.893z" fill="#808080"/>
<rect height="4.372" width="3.697" stroke="#000" y="16.215" x="139.75" stroke-width="1.4679" fill="#C0C0C0"/>
<rect height="4.371" width="3.696" stroke="#000" y="101.46" x="139.93" stroke-width="1.4679" fill="#C0C0C0"/>
<g transform="matrix(.89472 0 0 1.5996 85.691 -228.69)">
	<rect height="9.531" width="18.165" stroke="#000" y="178.3" x="66.011" stroke-width="2" fill="#C0C0C0"/>
	<path d="m83.424 180.65v-1.972h-18.185v1.972h18.185z" fill="#808080"/>
	<path d="m83.442 184.32v-1.647h-18.227v1.647h18.227z" fill="#fff"/>
	<path d="m83.423 186.21v-1.935h-18.243v1.935h18.243z" fill="#C0C0C0"/>
	<path d="m83.537 182.68v-2.039h-18.243v2.039h18.243z" fill="#C0C0C0"/>
	<path d="m83.388 188.08v-1.919h-18.185v1.919h18.185z" fill="#808080"/>
</g>
<path stroke="#000" stroke-width="1.6793" d="m131.56 1.215v11.566l-2.114 2.434v-14h2.11z"/>
<path stroke="#000" stroke-width="1.6793" d="m140.66 1.135v11.566l2.114 2.434v-14h-2.11z"/>
<path d="m120.42 103.78h18.87l0.104 2.148h-18.767c0.01 0-0.33-1.61-0.2-2.15z" fill="#808080"/>
<path d="m120.37 97.631h12.146l0.067 2.147h-12.081c-0.01 0-0.23-1.611-0.14-2.147z" fill="#808080"/>
</svg>
