<?xml version="1.0" encoding="UTF-8" standalone="no"?>
<svg xmlns:rdf="http://www.w3.org/1999/02/22-rdf-syntax-ns#" xmlns="http://www.w3.org/2000/svg" xml:space="preserve" height="20.385" viewBox="0 0 20.385985 20.385132" width="20.386" version="1.0" enable-background="new 0 0 36.851 36.849" y="0px" x="0px" xmlns:cc="http://creativecommons.org/ns#" xmlns:dc="http://purl.org/dc/elements/1.1/">
<path id="bgColor00" d="m12.81 9.5436c0.821-0.295 2.193-0.485 3.508 0.248 2.24 1.244 4.344-0.647 4.038-2.743-0.273-1.854-1.419-3.744-2.875-4.502-2.177-1.135-3.824-0.504-5.101 0.881-0.833 0.906-1.706 2.508-1.775 4.027-0.032 0.716-0.862 0.678-1.063 0.121-0.295-0.822-0.483-2.194 0.249-3.508 1.243-2.239-0.646-4.343-2.743-4.038-1.854 0.272-3.743 1.418-4.501 2.874-1.137 2.177-0.506 3.824 0.88 5.099 0.906 0.837 2.51 1.708 4.027 1.777 0.718 0.033 0.681 0.863 0.123 1.064-0.824 0.295-2.196 0.484-3.511-0.25-2.239-1.242-4.34 0.648-4.037 2.744 0.273 1.854 1.418 3.744 2.875 4.502 2.176 1.135 3.823 0.504 5.1-0.881 0.835-0.906 1.707-2.508 1.775-4.029 0.034-0.715 0.865-0.676 1.064-0.119 0.294 0.822 0.484 2.193-0.25 3.508-1.242 2.238 0.649 4.342 2.743 4.037 1.856-0.271 3.744-1.418 4.504-2.875 1.134-2.176 0.503-3.822-0.882-5.098-0.907-0.836-2.508-1.709-4.026-1.777-0.718-0.031-0.68-0.865-0.122-1.062zm-2.618 1.683c-0.57 0-1.033-0.461-1.033-1.033s0.463-1.034 1.033-1.034c0.572 0 1.035 0.461 1.035 1.034s-0.463 1.033-1.035 1.033z"/>
<rect height="36.849" width="36.851" y="-8.2314" x="-8.2318" fill="none"/>
</svg>
