<?xml version="1.0" encoding="UTF-8" standalone="no"?>
<svg xmlns:rdf="http://www.w3.org/1999/02/22-rdf-syntax-ns#" xmlns="http://www.w3.org/2000/svg" xml:space="preserve" overflow="visible" height="436" viewBox="0 0 435.999 436" width="436" version="1.0" enable-background="new 0 0 435.999 436" xmlns:cc="http://creativecommons.org/ns#" xmlns:dc="http://purl.org/dc/elements/1.1/">
<path d="m315.39 46.082l2.916 1.666 10.2-17.685c-0.965-0.568-1.931-1.134-2.904-1.688l-10.22 17.707z"/>
<path d="m389.95 120.64l17.692-10.202c-0.554-0.975-1.12-1.942-1.688-2.908l-0.625 0.36 0.002 0.004-17.049 9.833 1.68 2.92z"/>
<path d="m435.98 216.32h-54.137v3.378h54.137c0.004-0.565 0.021-1.128 0.021-1.694 0-0.57-0.02-1.13-0.02-1.69z" fill="#666"/>
<path d="m388.28 318.28l17.676 10.202c0.572-0.971 1.141-1.943 1.698-2.924l-17.683-10.208-1.7 2.93z"/>
<path d="m315.34 389.98l10.208 17.68c0.979-0.557 1.951-1.125 2.922-1.696l-10.203-17.673-2.93 1.69z"/>
<path d="m216.36 0.021v54.181h3.334v-54.181c-0.56-0.004-1.13-0.021-1.69-0.021-0.55 0-1.1 0.017-1.64 0.021z"/>
<path d="m107.54 405.96c0.971 0.572 1.942 1.14 2.922 1.697l10.205-17.679-2.926-1.689-10.19 17.67z"/>
<path d="m28.348 325.55c0.558 0.979 1.126 1.952 1.697 2.923l17.675-10.202-1.689-2.93-17.683 10.21z"/>
<path d="m0 218c0 0.566 0.018 1.129 0.021 1.694h54.151v-3.378h-54.151c-0.004 0.57-0.021 1.13-0.021 1.69z" fill="#666"/>
<path d="m120.65 46.082l-0.003-0.005 0.003-0.001-10.221-17.721c-0.975 0.554-1.941 1.119-2.906 1.688l10.211 17.705 2.92-1.666z"/>
<path d="m45.987 120.63l0.004 0.002 1.769-2.913-17.707-10.213c-0.577 0.979-1.15 1.96-1.712 2.949l17.645 10.178 0.001-0.01z"/>
<path d="m216.36 381.82v54.18h3.334v-54.18c-0.564-0.005-1.125-0.021-1.69-0.021-0.55 0-1.1 0.02-1.64 0.02z"/>
<circle cy="218" cx="218" r="6.058"/>
</svg>
