<?xml version="1.0" encoding="UTF-8" standalone="no"?>
<svg xmlns="http://www.w3.org/2000/svg" xml:space="preserve" height="122.37" width="227.02" version="1.1" viewBox="0 0 227.021 122.371">
<path id="bgColor00" fill="#e5e5e5" d="m226.09 55.963h-2.697c-0.305 0-0.428 0.784-0.467 1.107h-16.696c0.002 0.091 0.012 0.486 0.014 0.592 0.002 0.051-0.021-0.574-0.059-1.564-0.553-25.989-3.479-26.875-3.828-26.887h-0.013-0.003c-0.014 0-0.021 0.002-0.021 0.002h-1.805c-0.002 0.352-0.002 0.734-0.002 1.141v0.167h-0.002v-4.997c0-10.566-1.994-10.768-1.994-10.768l-9.971-8.572-10.17-0.199s-0.598 1.195-0.598 3.389v2.193h-136.78l-2.451 2.203-3.127 0.037v-2.24h-21.659l-8.973 5.385s1.195 4.785 0.199 13.557c-0.398 11.965-4.586 14.756-4.586 14.756v9.77h1.596l-1.596 2.393v33.895l2.191 0.199-2.191 1.596v9.77h5.781s1.195 2.99 1.793 7.979c0.602 4.982-0.197 9.371-0.197 9.371h22.133l1.994-3.391h5.184v3.391h146.88l2.99 5.98s1.396 2.791 2.193 1.994h8.771c2.791 0 2.594-3.988 2.594-3.988v-15.256h1.563v-0.229h0.412s2.057 0.714 3.16-14.93v-0.008c0.02-0.279 0.041-0.564 0.059-0.855v-0.002c0.061-0.873 0.113-1.795 0.164-2.77 0-0.008 0-0.016 0.002-0.021 0.051-0.973 0.1-1.994 0.145-3.069v-0.01c0.127-3.111 0.23-6.189 0.23-6.189h16.674c0.063 0.731 0.207 1.354 0.533 1.354h2.688s1.27 0.441 1.27-13.081c0.002-13.525-1.323-13.195-1.323-13.195zm-20.324-9.394c0.186 2.673 0.332 5.782 0.416 9.405-0.094-2.478-0.271-7.062-0.416-9.405z"/>
<polygon points="22.246 86.99 22.05 87.132 22.05 96.827 31.677 96.827 31.677 87.132 31.816 86.99" fill="none"/>
<rect height="33.343" width="9.627" y="51.72" x="22.05" fill="none"/>
<path fill="none" d="m31.677 39.279s0.049-0.046 0.135-0.149h-9.572c-0.119 0.104-0.188 0.149-0.188 0.149v9.725h9.628v-9.725h-0.003z"/>
<rect height="2.717" width=".07" y="49.003" x="189.35" fill="#04bf00"/>
<rect height="1.928" width=".07" y="85.063" x="189.35" fill="#04bf00"/>
<linearGradient id="SVGID_1_" y2="819.4" gradientUnits="userSpaceOnUse" x2="548.91" gradientTransform="translate(-359.49 -697.03)" y1="697.03" x1="548.91">
	<stop stop-opacity="0.7" offset="0"/>
	<stop stop-opacity="0.48" offset=".0667"/>
	<stop stop-color="#fcfcfc" stop-opacity="0.48" offset=".12730"/>
	<stop stop-color="#fff" stop-opacity="0.48" offset=".18790"/>
	<stop stop-opacity="0.48" offset=".63640"/>
	<stop stop-opacity="0.8" offset=".81210"/>
	<stop stop-opacity="0.8" offset="1"/>
</linearGradient>
<path fill="url(#SVGID_1_)" d="m200.52 118.24v-98.698c0-10.566-1.994-10.768-1.994-10.768l-9.98-8.57-10.17-0.2s-0.02 0.041-0.053 0.119c0.349 0.215 0.793 0.541 1.359 1.021 2.617 2.214 6.643 7.046 6.643 7.046s3.021 3.221 3.021 9.26v92.803 9.262s-0.102 2.15-1.25 2.433c0.361 0.377 0.748 0.584 1.049 0.285h8.771c2.791 0 2.593-3.991 2.593-3.991z"/>
<linearGradient id="SVGID_2_" y2="736.16" gradientUnits="userSpaceOnUse" x2="370.81" gradientTransform="translate(-359.49 -697.03)" y1="746.03" x1="370.81">
	<stop stop-opacity="0" offset="0"/>
	<stop stop-opacity="0.3" offset="1"/>
</linearGradient>
<path fill="url(#SVGID_2_)" d="m22.05 39.279s0.068-0.046 0.188-0.149h-21.656c-0.119 0.104-0.188 0.149-0.188 0.149v9.725h21.656v-9.725z"/>
<linearGradient id="SVGID_3_" y2="748.75" gradientUnits="userSpaceOnUse" x2="370.71" gradientTransform="translate(-359.49 -697.03)" y1="782.09" x1="370.71">
	<stop stop-opacity="0" offset=".65450"/>
	<stop stop-opacity="0.33" offset="1"/>
</linearGradient>
<rect height="33.343" width="21.654" y="51.72" x="0.394" fill="url(#SVGID_3_)"/>
<linearGradient id="SVGID_4_" y2="784.02" gradientUnits="userSpaceOnUse" x2="370.81" gradientTransform="translate(-359.49 -697.03)" y1="793.86" x1="370.81">
	<stop stop-opacity="0" offset="0"/>
	<stop stop-opacity="0.3" offset="1"/>
</linearGradient>
<polygon points="22.246 86.99 0.589 86.99 0.394 87.132 0.394 96.827 22.05 96.827 22.05 87.132" fill="url(#SVGID_4_)"/>
<linearGradient id="SVGID_5_" y2="705.34" gradientUnits="userSpaceOnUse" x2="394.9" gradientTransform="translate(-359.49 -697.03)" y1="705.34" x1="364.27">
	<stop stop-opacity="0" offset="0"/>
	<stop stop-opacity="0.3" offset="1"/>
</linearGradient>
<path fill="url(#SVGID_5_)" d="m26.437 10.966 8.973-5.385h-21.657l-8.973 5.385s0.006 0.021 0.016 0.063h21.656c-0.009-0.041-0.015-0.063-0.015-0.063z"/>
<linearGradient id="SVGID_6_" y2="784.02" gradientUnits="userSpaceOnUse" x2="470" gradientTransform="translate(-359.49 -697.03)" y1="793.86" x1="470">
	<stop stop-opacity="0" offset="0"/>
	<stop stop-opacity="0.3" offset="1"/>
</linearGradient>
<polygon points="31.677 96.827 189.35 96.827 189.35 86.99 31.816 86.99 31.677 87.132" fill="url(#SVGID_6_)"/>
<linearGradient id="SVGID_7_" y2="736.16" gradientUnits="userSpaceOnUse" x2="470" gradientTransform="translate(-359.49 -697.03)" y1="746.03" x1="470">
	<stop stop-opacity="0" offset="0"/>
	<stop stop-opacity="0.3" offset="1"/>
</linearGradient>
<path fill="url(#SVGID_7_)" d="m31.677 39.279v9.725h157.67v-9.414s-0.08-0.16-0.221-0.46h-157.32c-0.086 0.103-0.133 0.149-0.133 0.149z"/>
<linearGradient id="SVGID_8_" y2="748.75" gradientUnits="userSpaceOnUse" x2="470" gradientTransform="translate(-359.49 -697.03)" y1="782.09" x1="470">
	<stop stop-opacity="0" offset=".65450"/>
	<stop stop-opacity="0.33" offset="1"/>
</linearGradient>
<rect height="33.343" width="157.68" y="51.72" x="31.677" fill="url(#SVGID_8_)"/>
<linearGradient id="SVGID_9_" y2="705.34" gradientUnits="userSpaceOnUse" x2="546.22" gradientTransform="translate(-359.49 -697.03)" y1="705.34" x1="394.27">
	<stop stop-opacity="0" offset="0"/>
	<stop stop-opacity="0.3" offset="1"/>
</linearGradient>
<path fill="url(#SVGID_9_)" d="m186.73 11.003-6.64-5.422h-138.96l-6.354 5.385s0.004 0.021 0.01 0.063h151.91c0.02-0.019 0.03-0.026 0.03-0.026z"/>
<linearGradient id="SVGID_10_" y2="708.06" gradientUnits="userSpaceOnUse" x2="373.3" gradientTransform="translate(-359.49 -697.03)" y1="736.16" x1="373.3">
	<stop stop-opacity=".2" offset="0"/>
	<stop stop-color="#fff" stop-opacity="0.64" offset=".46060"/>
	<stop stop-color="#fff" offset=".5758"/>
	<stop stop-opacity="0.18" offset="1"/>
</linearGradient>
<path fill="url(#SVGID_10_)" d="m26.635 24.523c0.934-8.191-0.051-12.904-0.184-13.493h-21.655c0.134 0.589 1.115 5.302 0.186 13.493-0.35 10.439-3.582 13.895-4.4 14.606h21.656c0.818-0.712 4.051-4.167 4.397-14.606z"/>
<linearGradient id="SVGID_11_" y2="708.06" gradientUnits="userSpaceOnUse" x2="469.96" gradientTransform="translate(-359.49 -697.03)" y1="736.16" x1="469.96">
	<stop stop-opacity=".2" offset="0"/>
	<stop stop-color="#fff" stop-opacity="0.64" offset=".46060"/>
	<stop stop-color="#fff" offset=".5758"/>
	<stop stop-opacity="0.18" offset="1"/>
</linearGradient>
<path fill="url(#SVGID_11_)" d="m34.923 24.523c-0.246 10.439-2.533 13.895-3.111 14.606h157.32c-0.783-1.716-3.434-8.116-3.604-16.853-0.186-9.406 0.98-11.039 1.18-11.247h-151.92c0.095 0.59 0.791 5.303 0.13 13.494z"/>
<linearGradient id="SVGID_12_" y2="747.39" gradientUnits="userSpaceOnUse" x2="382.52" gradientTransform="translate(-359.49 -697.03)" y1="747.39" x1="359.88">
	<stop stop-opacity="0" offset="0"/>
	<stop stop-opacity=".1041" offset=".1301"/>
	<stop stop-opacity="0.8" offset="1"/>
</linearGradient>
<polygon opacity=".8" points="23.025 49.031 22.05 49.048 22.05 49.003 0.394 49.003 0.394 49.048 1.99 49.048 0.394 51.441 0.394 51.72 22.05 51.72 22.05 51.441" fill="url(#SVGID_12_)"/>
<linearGradient id="SVGID_13_" y2="747.39" gradientUnits="userSpaceOnUse" x2="548.84" gradientTransform="translate(-359.49 -697.03)" y1="747.39" x1="391.17">
	<stop stop-opacity="0.55" offset="0"/>
	<stop stop-opacity=".59680" offset=".1301"/>
	<stop stop-opacity="0.91" offset="1"/>
</linearGradient>
<polygon opacity=".8" points="32.806 49.048 31.677 51.441 31.677 51.72 189.35 51.72 189.35 49.003 31.677 49.003 31.677 49.048" fill="url(#SVGID_13_)"/>
<linearGradient id="SVGID_14_" y2="783.06" gradientUnits="userSpaceOnUse" x2="382.46" gradientTransform="translate(-359.49 -697.03)" y1="783.06" x1="359.88">
	<stop stop-opacity="0" offset="0"/>
	<stop stop-opacity=".1041" offset=".1301"/>
	<stop stop-opacity="0.8" offset="1"/>
</linearGradient>
<polygon opacity=".8" points="22.05 85.337 22.05 85.063 0.394 85.063 0.394 85.337 2.587 85.537 0.589 86.99 22.246 86.99 22.969 85.337" fill="url(#SVGID_14_)"/>
<linearGradient id="SVGID_15_" y2="783.06" gradientUnits="userSpaceOnUse" x2="548.84" gradientTransform="translate(-359.49 -697.03)" y1="783.06" x1="391.31">
	<stop stop-opacity="0.55" offset="0"/>
	<stop stop-opacity=".59680" offset=".1301"/>
	<stop stop-opacity="0.91" offset="1"/>
</linearGradient>
<polygon opacity=".8" points="31.816 86.99 189.35 86.99 189.35 85.063 33.406 85.063" fill="url(#SVGID_15_)"/>
<linearGradient id="SVGID_16_" y2="793.86" gradientUnits="userSpaceOnUse" x2="374.61" gradientTransform="translate(-359.49 -697.03)" y1="811.28" x1="374.61">
	<stop stop-opacity=".2" offset="0"/>
	<stop offset="1"/>
</linearGradient>
<path fill="url(#SVGID_16_)" d="m6.177 96.902s1.195 2.99 1.794 7.978c0.601 4.983-0.198 9.371-0.198 9.371h21.654s0.801-4.388 0.199-9.371c-0.598-4.985-1.793-7.978-1.793-7.978h-5.783v-0.074h-21.656v0.075h5.783z"/>
<linearGradient id="SVGID_17_" y2="793.86" gradientUnits="userSpaceOnUse" x2="470" gradientTransform="translate(-359.49 -697.03)" y1="811.28" x1="470">
	<stop stop-opacity=".2" offset="0"/>
	<stop offset="1"/>
</linearGradient>
<path fill="url(#SVGID_17_)" d="m31.677 96.902h4.096s0.848 2.99 1.271 7.978c0.248 2.913 0.156 5.621 0.039 7.37v2.001h146.88c-0.555-13.515 1.764-16.886 1.764-16.886h3.623v-0.537h-157.66v0.075z"/>
<path opacity=".8" d="m35.41 5.582-8.973 5.385s0.006 0.021 0.016 0.063c0.133 0.589 1.115 5.302 0.185 13.493-0.349 10.439-3.579 13.895-4.397 14.606-0.119 0.104-0.188 0.149-0.188 0.149v9.725l0.977 0.027-0.002-9.276s2.92-0.751 3.906-8.308c0.836-6.394 0.732-18.541 0.732-18.541l7.744-5.085v-2.238z"/>
<linearGradient id="SVGID_18_" y2="707.72" gradientUnits="userSpaceOnUse" x2="398.03" gradientTransform="translate(-359.49 -697.03)" y1="707.72" x1="387.15">
	<stop stop-opacity="0" offset="0"/>
	<stop stop-opacity="0.3" offset="1"/>
</linearGradient>
<path fill="url(#SVGID_18_)" d="m34.793 11.03c-0.006-0.042-0.01-0.063-0.01-0.063l3.754-3.182-3.127 0.037-7.746 5.084s0.006 0.248 0.012 0.69h7.391c-0.107-1.465-0.237-2.336-0.274-2.566z"/>
<linearGradient id="SVGID_19_" y2="736.63" gradientUnits="userSpaceOnUse" x2="386.89" gradientTransform="translate(-359.49 -697.03)" y1="746.87" x1="386.89">
	<stop stop-opacity="0" offset="0"/>
	<stop stop-opacity="0.3" offset="1"/>
</linearGradient>
<path fill="url(#SVGID_19_)" d="m23.023 39.754v10.087h8.646v-9.152l0.102-1.088h-8.578c-0.108 0.106-0.17 0.153-0.17 0.153z"/>
<linearGradient id="SVGID_20_" y2="710.63" gradientUnits="userSpaceOnUse" x2="388.69" gradientTransform="translate(-359.49 -697.03)" y1="736.63" x1="388.69">
	<stop stop-opacity=".2" offset="0"/>
	<stop stop-color="#fff" stop-opacity="0.64" offset="0.297"/>
	<stop stop-color="#fff" offset=".4364"/>
	<stop stop-opacity="0.18" offset="1"/>
</linearGradient>
<path fill="url(#SVGID_20_)" d="m32.908 37.135c0.852-2.062 1.857-5.886 2.016-12.612 0.4-4.973 0.303-8.662 0.143-10.927h-7.391c0.035 2.663-0.09 12.362-0.744 17.851-0.816 6.849-3.205 7.592-3.738 8.154h8.578l0.041-0.472 1.095-1.994z"/>
<polygon opacity=".8" points="23.023 49.841 23.525 49.841 22.824 51.72 22.824 84.115 24.289 84.115 22.969 85.337 22.05 85.337 22.05 51.441 23.025 49.031"/>
<linearGradient id="SVGID_21_" y2="748.75" gradientUnits="userSpaceOnUse" x2="386.74" gradientTransform="translate(-359.49 -697.03)" y1="781.16" x1="386.74">
	<stop stop-opacity=".1" offset=".65450"/>
	<stop stop-opacity="0.33" offset="1"/>
</linearGradient>
<polygon points="31.677 51.72 31.677 84.128 22.824 84.115 22.824 51.72" fill="url(#SVGID_21_)"/>
<path fill="#6bb022" d="m41.468 70.498"/>
<polygon opacity=".8" points="23.023 95.327 31.677 95.327 31.677 96.827 22.05 96.827 22.246 86.99 22.969 85.337"/>
<linearGradient id="SVGID_22_" y2="793.86" gradientUnits="userSpaceOnUse" x2="391.93" gradientTransform="translate(-359.49 -697.03)" y1="808.42" x1="391.93">
	<stop stop-opacity=".2" offset="0"/>
	<stop offset="1"/>
</linearGradient>
<path fill="url(#SVGID_22_)" d="m35.771 96.902-8.064-0.075s1.463 3.259 1.797 7.104c0.332 3.844 0.348 7.461 0.348 7.461h7.23s0.306-4.386-0.164-7.822c-0.471-3.441-1.147-6.668-1.147-6.668z"/>
<path opacity=".8" d="m28.73 96.835s0.777 2.676 1.119 6.185c0.342 3.508 0.566 8.373 0.566 8.373l1.26-0.156-1.771 3.015s0.174-0.937-0.279-6.593-1.918-10.831-1.918-10.831l1.023 0.007z"/>
<linearGradient id="SVGID_23_" y2="712.25" gradientUnits="userSpaceOnUse" x2="545.45" gradientTransform="translate(-359.49 -697.03)" y1="728.93" x1="548.64">
	<stop stop-opacity="0" offset="0"/>
	<stop stop-opacity=".0325" offset=".0836"/>
	<stop stop-opacity=".25" offset=".64240"/>
	<stop stop-opacity="0.8" offset="1"/>
</linearGradient>
<ellipse rx="1.197" ry="7.067" cy="23.125" cx="187.47" fill="url(#SVGID_23_)"/>
<linearGradient id="SVGID_24_" y2="801.4" gradientUnits="userSpaceOnUse" x2="546.22" gradientTransform="translate(-359.49 -697.03)" y1="813.65" x1="547.64">
	<stop stop-opacity="0" offset="0"/>
	<stop stop-opacity=".0325" offset=".0836"/>
	<stop stop-opacity=".25" offset=".64240"/>
	<stop stop-opacity="0.8" offset="1"/>
</linearGradient>
<ellipse rx="1.197" ry="7.068" cy="110.8" cx="187.47" fill="url(#SVGID_24_)"/>
<linearGradient id="SVGID_25_" y2="730.95" gradientUnits="userSpaceOnUse" x2="554.48" gradientTransform="translate(-359.49 -697.03)" y1="714.86" x1="554.48">
	<stop stop-color="#fff" stop-opacity="0.9" offset=".0121"/>
	<stop stop-color="#fff" stop-opacity="0" offset="0.703"/>
</linearGradient>
<path opacity="0.67" fill="url(#SVGID_25_)" d="m200.52 21.453c0-1.504 0.012-2.877 0.031-4.131h-11.092c-0.021 1.258-0.033 2.628-0.031 4.13 0 1.188 0.002 3.052 0.005 5.481h11.087v-5.48z"/>
<linearGradient id="SVGID_26_" y2="799.79" gradientUnits="userSpaceOnUse" x2="8820.7" gradientTransform="matrix(-1 0 0 1 9024.1 -697.03)" y1="720.26" x1="8820.7">
	<stop stop-color="#fff" stop-opacity=".38" offset="0"/>
	<stop stop-opacity="0.7" offset=".0848"/>
	<stop stop-opacity="0.48" offset=".1637"/>
	<stop stop-color="#fcfcfc" stop-opacity="0.48" offset=".27720"/>
	<stop stop-color="#fff" stop-opacity="0.48" offset=".40080"/>
	<stop stop-opacity="0.48" offset=".55770"/>
	<stop stop-opacity="0.8" offset=".81210"/>
	<stop stop-opacity="0.8" offset="1"/>
</linearGradient>
<path fill="url(#SVGID_26_)" d="m200.52 23.229h1.805s4.01-1.002 4.01 39.929-3.842 39.595-3.842 39.595h-1.973c-0.004-23.006-0.01-67.47 0-79.524z"/>
<g opacity=".4" fill="#fff">
	<path d="m202.27 24.369h-1.754c0-0.406 0-0.789 0.002-1.141h1.805s3.479-0.826 3.91 29.48c-0.385-27.192-3.963-28.339-3.963-28.339z"/>
	<path d="m205.47 90.212c0.371-5.914 0.619-11.328 0.768-16.282-0.145 6.98-0.424 12.272-0.768 16.282z"/>
</g>
<linearGradient id="SVGID_27_" y2="759.94" gradientUnits="userSpaceOnUse" x2="8825.1" gradientTransform="matrix(-1 0 0 1 9024.1 -697.03)" y1="759.94" x1="8822.4">
	<stop stop-opacity="0" offset="0"/>
	<stop stop-opacity="0.61" offset="1"/>
</linearGradient>
<rect height="79.365" width="1.754" y="23.227" x="200.33" fill="url(#SVGID_27_)"/>
<linearGradient id="SVGID_28_" y2="773.83" gradientUnits="userSpaceOnUse" x2="8798.7" gradientTransform="matrix(-1 0 0 1 9024.1 -697.03)" y1="746.57" x1="8798.7">
	<stop stop-color="#fff" stop-opacity=".38" offset="0"/>
	<stop stop-opacity="0.7" offset=".0848"/>
	<stop stop-opacity="0.48" offset=".1637"/>
	<stop stop-color="#fcfcfc" stop-opacity="0.48" offset=".27720"/>
	<stop stop-color="#fff" stop-opacity="0.48" offset=".40080"/>
	<stop stop-opacity="0.48" offset=".55770"/>
	<stop stop-opacity="0.8" offset=".81210"/>
	<stop stop-opacity="0.8" offset="1"/>
</linearGradient>
<path fill="url(#SVGID_28_)" d="m224.7 63.168c0-12.597-1.148-13.171-1.307-13.19h2.697s1.324-0.33 1.324 13.19c0 13.521-1.27 13.081-1.27 13.081h-2.688c0.197-0.037 1.244-0.793 1.244-13.081z"/>
<path opacity=".8" d="m223.53 74.896c0.678-2.621 0.891-6.92 0.891-11.781 0-4.844-0.209-9.128-0.883-11.752h-0.623v-0.138s0.1-1.246 0.479-1.246 1.305 2.344 1.305 12.425c0 8.354-0.521 13.847-1.238 13.847-0.326 0-0.473-0.621-0.533-1.354h0.602v-0.001z"/>
<linearGradient id="SVGID_29_" y2="2943.8" gradientUnits="userSpaceOnUse" x2="-21239" gradientTransform="matrix(.4975 0 0 .6527 10782 -1869.6)" y1="2978.3" x1="-21239">
	<stop stop-opacity=".6372" offset="0"/>
	<stop stop-opacity=".4425" offset=".1497"/>
	<stop stop-opacity=".0973" offset=".34470"/>
	<stop stop-color="#787878" stop-opacity="0" offset="1"/>
</linearGradient>
<path fill="url(#SVGID_29_)" d="m224.13 71.027h-17.816c0.021-1.729 0.039-3.553 0.047-5.475h18.04c-0.035 1.994-0.117 3.848-0.266 5.475z"/>
<path fill-opacity=".62910" fill="#fff" d="m222.91 51.362h-16.67c-0.004-0.093-0.006-0.186-0.008-0.276h16.693c-0.01 0.084-0.014 0.139-0.014 0.139s0.003 0.046 0.003 0.137z"/>
<path fill-opacity="0.554" d="m223.53 74.896h-17.284c0.002-0.1 0.004-0.199 0.006-0.299h17.352c-0.025 0.1-0.05 0.203-0.074 0.299z"/>
<linearGradient id="SVGID_30_" y2="2943.8" gradientUnits="userSpaceOnUse" x2="-21240" gradientTransform="matrix(.4975 0 0 .6527 10782 -1869.6)" y1="2978.3" x1="-21240">
	<stop stop-opacity=".6372" offset="0"/>
	<stop stop-opacity=".4425" offset=".1497"/>
	<stop stop-opacity=".0973" offset=".34470"/>
	<stop stop-color="#787878" stop-opacity="0" offset="1"/>
</linearGradient>
<path fill="url(#SVGID_30_)" d="m223.67 74.296h-17.412c0.023-1.051 0.043-2.141 0.061-3.271h17.816c-0.113 1.234-0.265 2.34-0.465 3.271z"/>
<linearGradient id="SVGID_31_" y2="-2309.8" gradientUnits="userSpaceOnUse" x2="-21213" gradientTransform="matrix(.4982 0 0 -1.0171 10783 -2276.3)" y1="-2311.4" x1="-21213">
	<stop stop-color="#fff" stop-opacity=".62830" offset="0"/>
	<stop stop-color="#fff" stop-opacity="0" offset="1"/>
</linearGradient>
<path fill="url(#SVGID_31_)" d="m223.67 74.296h-17.412c0.023-1.051 0.043-2.141 0.061-3.271h17.816c-0.113 1.234-0.265 2.34-0.465 3.271z"/>
<path fill-opacity="0.554" d="m223.6 74.598h-17.35c0.002-0.102 0.006-0.199 0.006-0.302h17.412c-0.02 0.104-0.043 0.202-0.067 0.302z"/>
<linearGradient id="SVGID_32_" y2="-2309.8" gradientUnits="userSpaceOnUse" x2="-21213" gradientTransform="matrix(.4982 0 0 -1.0171 10783 -2276.3)" y1="-2311.4" x1="-21213">
	<stop stop-color="#fff" stop-opacity=".62830" offset="0"/>
	<stop stop-color="#fff" stop-opacity="0" offset="1"/>
</linearGradient>
<path fill="url(#SVGID_32_)" d="m223.6 74.598h-17.35c0.002-0.102 0.006-0.199 0.006-0.302h17.412c-0.02 0.104-0.043 0.202-0.067 0.302z"/>
<linearGradient id="SVGID_33_" y2="2943.8" gradientUnits="userSpaceOnUse" x2="-21239" gradientTransform="matrix(.4975 0 0 .6527 10782 -1869.6)" y1="2978.3" x1="-21239">
	<stop stop-opacity=".6372" offset="0"/>
	<stop stop-opacity=".4425" offset=".1497"/>
	<stop stop-opacity=".0973" offset=".34470"/>
	<stop stop-color="#787878" stop-opacity="0" offset="1"/>
</linearGradient>
<path fill="url(#SVGID_33_)" d="m224.34 58.503c0.057 1.447 0.08 2.997 0.08 4.611 0 0.831-0.006 1.645-0.021 2.438h-18.035c0.004-0.782 0.004-1.579 0.004-2.396 0-1.615-0.006-3.166-0.018-4.652l17.99-0.001z"/>
<linearGradient id="SVGID_34_" y2="1110.5" gradientUnits="userSpaceOnUse" x2="-21239" gradientTransform="matrix(.4975 0 0 1.5257 10782 -1641.8)" y1="1118" x1="-21239">
	<stop stop-color="#fff" stop-opacity="0" offset="0"/>
	<stop stop-color="#fff" stop-opacity=".6275" offset=".24870"/>
	<stop stop-color="#fff" stop-opacity="0.823" offset=".49740"/>
	<stop stop-color="#fff" stop-opacity=".6275" offset=".75410"/>
	<stop stop-color="#fff" stop-opacity="0" offset="1"/>
</linearGradient>
<path fill="url(#SVGID_34_)" d="m224.34 58.503c0.057 1.447 0.08 2.997 0.08 4.611 0 0.831-0.006 1.645-0.021 2.438h-18.035c0.004-0.782 0.004-1.579 0.004-2.396 0-1.615-0.006-3.166-0.018-4.652l17.99-0.001z"/>
<linearGradient id="SVGID_35_" y2="2943.8" gradientUnits="userSpaceOnUse" x2="-21240" gradientTransform="matrix(.4975 0 0 .6527 10782 -1869.6)" y1="2978.4" x1="-21240">
	<stop stop-opacity=".6372" offset="0"/>
	<stop stop-opacity=".4425" offset=".1497"/>
	<stop stop-opacity=".0973" offset=".34470"/>
	<stop stop-color="#787878" stop-opacity="0" offset="1"/>
</linearGradient>
<path fill="url(#SVGID_35_)" d="m223.78 52.457h-17.512c-0.008-0.262-0.014-0.521-0.02-0.779h17.365c0.061 0.247 0.116 0.506 0.167 0.779z"/>
<linearGradient id="SVGID_36_" y2="1309.7" gradientUnits="userSpaceOnUse" x2="-21212" gradientTransform="matrix(.4982 0 0 2.0343 10783 -2608.2)" y1="1307.8" x1="-21212">
	<stop stop-opacity="0.469" offset="0"/>
	<stop stop-opacity="0" offset="1"/>
</linearGradient>
<path fill="url(#SVGID_36_)" d="m223.78 52.457h-17.512c-0.008-0.262-0.014-0.521-0.02-0.779h17.365c0.061 0.247 0.116 0.506 0.167 0.779z"/>
<path fill-opacity=".62910" fill="#fff" d="m223.54 51.362c0.025 0.101 0.051 0.21 0.074 0.315h-17.365c-0.002-0.104-0.004-0.211-0.006-0.315h17.297z"/>
<linearGradient id="SVGID_37_" y2="1309.7" gradientUnits="userSpaceOnUse" x2="-21213" gradientTransform="matrix(.4982 0 0 2.0343 10783 -2608.2)" y1="1307.8" x1="-21213">
	<stop stop-opacity="0.469" offset="0"/>
	<stop stop-opacity="0" offset="1"/>
</linearGradient>
<path fill="url(#SVGID_37_)" d="m223.54 51.362c0.025 0.101 0.051 0.21 0.074 0.315h-17.365c-0.002-0.104-0.004-0.211-0.006-0.315h17.297z"/>
<linearGradient id="SVGID_38_" y2="2943.8" gradientUnits="userSpaceOnUse" x2="-21239" gradientTransform="matrix(.4975 0 0 .6527 10782 -1869.6)" y1="2978.3" x1="-21239">
	<stop stop-opacity=".6372" offset="0"/>
	<stop stop-opacity=".4425" offset=".1497"/>
	<stop stop-opacity=".0973" offset=".34470"/>
	<stop stop-color="#787878" stop-opacity="0" offset="1"/>
</linearGradient>
<path fill="url(#SVGID_38_)" d="m224.34 58.503h-17.99c-0.018-2.145-0.049-4.156-0.086-6.047h17.512c0.3 1.632 0.474 3.707 0.563 6.047z"/>
<linearGradient id="SVGID_39_" y2="1110.5" gradientUnits="userSpaceOnUse" x2="-21239" gradientTransform="matrix(.4975 0 0 1.5257 10782 -1641.8)" y1="1118" x1="-21239">
	<stop stop-color="#fff" stop-opacity="0" offset="0"/>
	<stop stop-color="#fff" stop-opacity=".6275" offset=".24870"/>
	<stop stop-color="#fff" stop-opacity="0.823" offset=".49740"/>
	<stop stop-color="#fff" stop-opacity=".6275" offset=".75410"/>
	<stop stop-color="#fff" stop-opacity="0" offset="1"/>
</linearGradient>
<path fill="url(#SVGID_39_)" d="m224.34 58.503h-17.99c-0.018-2.145-0.049-4.156-0.086-6.047h17.512c0.3 1.632 0.474 3.707 0.563 6.047z"/>
<linearGradient id="SVGID_40_" y2="1309.7" gradientUnits="userSpaceOnUse" x2="-21212" gradientTransform="matrix(.4982 0 0 2.0343 10783 -2608.2)" y1="1307.8" x1="-21212">
	<stop stop-opacity="0.469" offset="0"/>
	<stop stop-opacity="0" offset="1"/>
</linearGradient>
<path fill="url(#SVGID_40_)" d="m224.34 58.503h-17.99c-0.018-2.145-0.049-4.156-0.086-6.047h17.512c0.3 1.632 0.474 3.707 0.563 6.047z"/>
<linearGradient id="SVGID_41_" y2="760.02" gradientUnits="userSpaceOnUse" x2="8801.9" gradientTransform="matrix(-1 0 0 1 9024.1 -697.03)" y1="760.02" x1="8798.5">
	<stop stop-opacity="0.469" offset="0"/>
	<stop stop-opacity="0" offset="1"/>
</linearGradient>
<path opacity="0.73" fill="url(#SVGID_41_)" d="m218.41 51.085h4.535c-0.01 0.084-0.016 0.139-0.016 0.139v0.138h0.623c0.025 0.101 0.053 0.21 0.074 0.315 0.061 0.248 0.111 0.506 0.162 0.779 0.301 1.632 0.476 3.706 0.566 6.047 0.055 1.447 0.08 2.997 0.08 4.611 0 0.831-0.01 1.645-0.021 2.438-0.035 1.993-0.117 3.849-0.266 5.476-0.113 1.23-0.266 2.336-0.465 3.27-0.021 0.104-0.047 0.201-0.068 0.301-0.023 0.101-0.045 0.203-0.07 0.299h-5.135v-23.813z"/>
<radialGradient id="SVGID_42_" gradientUnits="userSpaceOnUse" cy="302.36" cx="23763" gradientTransform="matrix(-.5 0 0 4.9405 12088 -1430.8)" r="3.2799">
	<stop stop-opacity="0.469" offset="0"/>
	<stop stop-opacity="0" offset="1"/>
</radialGradient>
<path opacity=".45" fill="url(#SVGID_42_)" d="m206.26 52.457c-0.002-0.262-0.004-0.521-0.008-0.779-0.002-0.104-0.002-0.211-0.004-0.315 0-0.093-0.002-0.186-0.002-0.276h2.078v23.812h-2.072c0.002-0.1 0.002-0.198 0.004-0.299 0-0.102 0.002-0.199 0.002-0.302 0.014-1.051 0.021-2.142 0.029-3.271 0.012-1.729 0.021-3.553 0.023-5.475 0.002-0.781 0.004-1.578 0.004-2.396 0-1.616-0.004-3.168-0.012-4.653-0.007-2.144-0.02-4.156-0.042-6.046z"/>
<path opacity="0.23" d="m223.6 57.861c-0.057-3.104-0.268-5.155-0.496-6.499h0.443c0.025 0.101 0.053 0.21 0.074 0.315 0.061 0.248 0.111 0.506 0.162 0.779 0.301 1.632 0.475 3.706 0.566 6.047 0.055 1.447 0.08 2.997 0.08 4.611 0 0.831-0.01 1.645-0.021 2.438-0.035 1.993-0.117 3.849-0.266 5.476-0.113 1.23-0.266 2.336-0.465 3.27-0.021 0.104-0.047 0.201-0.068 0.301-0.023 0.101-0.045 0.203-0.07 0.299h-1.493c1.296-6.25 1.662-10.988 1.554-17.037z"/>
<linearGradient id="SVGID_43_" y2="747.41" gradientUnits="userSpaceOnUse" x2="392.3" gradientTransform="translate(-359.49 -697.03)" y1="747.41" x1="382.31">
	<stop stop-opacity="0" offset="0"/>
	<stop stop-opacity=".1041" offset=".1301"/>
	<stop stop-opacity="0.8" offset="1"/>
</linearGradient>
<polygon opacity=".8" points="22.824 51.72 31.677 51.72 32.806 49.048 31.677 49.048 31.677 49.841 29.732 49.841 23.525 49.841" fill="url(#SVGID_43_)"/>
<linearGradient id="SVGID_44_" y2="782.37" gradientUnits="userSpaceOnUse" x2="386.89" gradientTransform="translate(-359.49 -697.03)" y1="792.53" x1="386.89">
	<stop stop-opacity=".1" offset=".65450"/>
	<stop stop-opacity="0.33" offset="1"/>
</linearGradient>
<polygon points="31.822 85.337 31.822 95.434 22.969 95.5 22.969 85.337" fill="url(#SVGID_44_)"/>
<linearGradient id="SVGID_45_" y2="781.02" gradientUnits="userSpaceOnUse" x2="387.68" gradientTransform="translate(-359.49 -697.03)" y1="784.01" x1="387.68">
	<stop stop-opacity="0.55" offset="0"/>
	<stop stop-opacity=".59680" offset=".1301"/>
	<stop stop-opacity="0.91" offset="1"/>
</linearGradient>
<polygon opacity=".8" points="22.969 85.337 31.822 85.337 31.822 86.982 33.406 85.063 31.677 85.063 31.677 84.128 24.289 83.986" fill="url(#SVGID_45_)"/>
<linearGradient id="SVGID_46_" y2="748.09" gradientUnits="userSpaceOnUse" x2="395.89" gradientTransform="translate(-359.49 -697.03)" y1="750.98" x1="369.13">
	<stop stop-opacity="0.91" offset="0"/>
	<stop stop-opacity="0" offset="1"/>
</linearGradient>
<path opacity=".75" fill="url(#SVGID_46_)" d="m35.41 7.822-7.746 5.084s-0.383 6.688-0.229 12.174c0.271 9.563-4.244 14.521-4.244 14.521l-0.168 10.24h0.502l-0.701 1.879v32.396l1.465-0.129-1.318 1.352v10.161l4.847-0.174-0.42-9.301 0.793-1.896v-32.468l0.541-1.819v-10.24s2.768-3.29 3.092-14.521c0.324-11.232-0.012-12.596-0.012-12.596l6.727-4.699-3.129 0.036z"/>
<path opacity="0.22" fill="#fff" d="m6.597 39.129s2.209-1.3 2.699-3.509c0.49-2.211 1.926-3.191 1.926-3.191h14.396l0.488 1.759h7.766l0.91-1.759h148.44s-0.488-5.156 0-11.538c0.492-6.383 0.982-9.861 0.982-9.861l-6.416-5.448h2.307l6.615 5.448s-1.082 2.076-1.18 11.247c-0.099 9.17 3.604 16.853 3.604 16.853h-157.31l-0.143 1.56-8.5 0.29 0.021-1.378-16.591-0.473z"/>
<linearGradient id="SVGID_47_" y2="800.03" gradientUnits="userSpaceOnUse" x2="378.74" gradientTransform="translate(-359.49 -697.03)" y1="805.39" x1="365.09">
	<stop stop-color="#fff" stop-opacity="0" offset="0"/>
	<stop stop-color="#fff" stop-opacity="0.79" offset="1"/>
</linearGradient>
<path opacity="0.21" fill="url(#SVGID_47_)" d="m6.677 96.902 4.68-0.075s3.43 2.37 5.002 7.282c1.571 4.912 2.355 10.142 2.355 10.142h-10.443s1.174-1.62 0.271-8.713c-0.903-7.095-1.865-8.638-1.865-8.638z"/>
<path opacity="0.53" fill="#5fb7ff" d="m188.1 121.94c0.041 0.041 0.082 0.082 0.123 0.119-0.041-0.037-0.082-0.078-0.123-0.119z"/>
<path opacity="0.53" fill="#5fb7ff" d="m188.53 122.28c0.039 0.021 0.078 0.039 0.117 0.053-0.039-0.014-0.078-0.034-0.117-0.053z"/>
<path opacity="0.53" fill="#5fb7ff" d="m178.38 0.02c0.002-0.004 0.002-0.008 0.004-0.01-0.002 0.001-0.002 0.005-0.004 0.01z"/>
<path opacity="0.53" fill="#5fb7ff" d="m178.36 0.059c0.004-0.005 0.004-0.008 0.006-0.012-0.002 0.003-0.002 0.006-0.006 0.012z"/>
<path opacity="0.53" fill="#5fb7ff" d="m189.02 122.32c-0.037 0.019-0.072 0.033-0.109 0.041 0.037-0.007 0.072-0.024 0.109-0.041z"/>
<path opacity="0.53" fill="#5fb7ff" d="m188.8 122.36c0.037 0.004 0.076 0.004 0.113-0.004-0.036 0.007-0.075 0.007-0.113 0.004z"/>
<path opacity="0.53" fill="#5fb7ff" d="m189.15 122.23c-0.033 0.031-0.068 0.057-0.104 0.078 0.036-0.022 0.071-0.047 0.104-0.078z"/>
<path opacity="0.53" fill="#5fb7ff" d="m188.38 122.19c0.041 0.027 0.082 0.056 0.123 0.078-0.041-0.023-0.082-0.051-0.123-0.078z"/>
<path opacity="0.53" fill="#5fb7ff" d="m188.25 122.08c0.041 0.034 0.08 0.066 0.121 0.098-0.041-0.03-0.08-0.063-0.121-0.098z"/>
<path opacity="0.53" fill="#5fb7ff" d="m188.77 122.36c-0.039-0.004-0.078-0.012-0.117-0.026 0.039 0.015 0.078 0.022 0.117 0.026z"/>
<linearGradient id="SVGID_48_" y2="712.25" gradientUnits="userSpaceOnUse" x2="545.45" gradientTransform="translate(-359.49 -697.03)" y1="728.93" x1="548.64">
	<stop stop-color="#fff" stop-opacity="0.8" offset="0"/>
	<stop stop-color="#fff" stop-opacity="0" offset=".49090"/>
</linearGradient>
<ellipse rx="1.197" ry="7.067" cy="23.125" cx="187.47" fill="url(#SVGID_48_)"/>
<linearGradient id="SVGID_49_" y2="801.4" gradientUnits="userSpaceOnUse" x2="546.22" gradientTransform="translate(-359.49 -697.03)" y1="813.65" x1="547.64">
	<stop stop-color="#fff" stop-opacity="0.8" offset="0"/>
	<stop stop-color="#fff" stop-opacity="0" offset=".4242"/>
</linearGradient>
<ellipse rx="1.197" ry="7.068" cy="110.8" cx="187.47" fill="url(#SVGID_49_)"/>
<linearGradient id="SVGID_50_" y2="733.59" gradientUnits="userSpaceOnUse" x2="556.35" gradientTransform="translate(-359.49 -697.03)" y1="697.89" x1="531.16">
	<stop stop-opacity="0.8" offset="0"/>
	<stop stop-opacity="0" offset="1"/>
</linearGradient>
<path opacity=".8" fill="url(#SVGID_50_)" d="m186.71 11.03c-0.197 0.208-1.363 1.841-1.18 11.247 0.172 8.736 2.82 15.137 3.604 16.853h0.221v-21.685c0-6.039-3.021-9.26-3.021-9.26s-4.023-4.832-6.643-7.046c-0.566-0.479-1.014-0.804-1.359-1.021-0.146 0.353-0.545 1.479-0.545 3.27v2.193h2.307l6.645 5.422c-0.002 0-0.012 0.007-0.029 0.027z"/>
<linearGradient id="SVGID_51_" y2="778.69" gradientUnits="userSpaceOnUse" x2="533.14" gradientTransform="translate(-359.49 -697.03)" y1="798.47" x1="543.81">
	<stop stop-opacity="0.8" offset="0"/>
	<stop stop-opacity="0" offset="1"/>
</linearGradient>
<path opacity=".9" fill="url(#SVGID_51_)" d="m189.35 96.827v0.538h-3.623s-2.316 3.371-1.764 16.886l2.99 5.981s0.543 1.084 1.146 1.709c1.148-0.28 1.25-2.433 1.25-2.433v-9.262c0.001 0.002 0.001-5.321 0.001-13.419z"/>
</svg>
