<?xml version="1.0" encoding="UTF-8" standalone="no"?>
<svg xmlns="http://www.w3.org/2000/svg" width="181.69px" xml:space="preserve" height="52.164px" viewBox="0 0 181.688 52.164" baseProfile="tiny" version="1.2" y="0px" x="0px" xmlns:xlink="http://www.w3.org/1999/xlink">
<g transform="translate(-8.7078 -58.177)">
	<path d="m38.823 62.467h123.07l8.939 8.96v24.959l-8.79 8.746h-123.22l-9.642-8.959 0.194-25.516 9.451-8.188z" stroke="#000" stroke-width="2" fill="#0000C0"/>
	<line y2="104.34" stroke-width="2" x2="39.152" stroke="#000" y1="62.284" x1="39.152" fill="none"/>
	<line y2="105.56" stroke-width="2" x2="160.99" stroke="#000" y1="63.5" x1="160.99" fill="none"/>
	<rect height="3" width="119.75" y="82" x="40.117" fill="#fff"/>
	<rect height="2.446" width="119.97" y="63.523" x="40.117" fill="#00056E"/>
	<rect height=".663" width="119.9" y="66.25" x="40.117" fill="#8080FF"/>
	<rect height="2.446" width="120.29" y="101.93" x="39.797" fill="#000566"/>
	<rect height=".664" width="119.75" y="100.5" x="40.117" fill="#8080FF"/>
	<path d="m169.59 83.001v1.918l-7.684 0.361v-3l7.68 0.721z" fill="#C0C0FF"/>
	<rect height="27.014" width="13.064" stroke="#000" y="70.442" x="171.97" fill="#000080"/>
	<rect height="2.502" width="8.716" y="72.418" x="174.28" fill="#4040FF"/>
	<rect height="1.523" width="8.592" y="83.84" x="174.19" fill="#fff"/>
	<rect height="11.152" width="8.598" y="84.688" x="174.21" fill="#4040FF"/>
	<rect height=".549" width="8.493" y="94.615" x="174.18" fill="#808080"/>
	<rect height="27.014" width="13.064" stroke="#000" y="69.942" x="14.825" fill="#000080"/>
	<rect height="2.502" width="8.715" y="71.918" x="17.134" fill="#C0C0FF"/>
	<rect height="1.523" width="8.592" y="83.34" x="17.044" fill="#fff"/>
	<rect height="11.152" width="8.598" y="84.188" x="17.059" fill="#4040FF"/>
	<rect height=".549" width="8.492" y="94.115" x="17.03" fill="#000040"/>
	<rect height="49.987" width="4.269" stroke="#000" y="59.455" x="185.23" stroke-width="2" fill="#0000C0"/>
	<rect height="4.629" width="2.848" y="63.111" x="185.98" fill="#C0C0FF"/>
	<rect height="2.818" width="2.809" y="82.6" x="185.95" fill="#fff"/>
	<rect height="19.269" width="2.809" y="85.47" x="185.96" fill="#C0C0FF"/>
	<rect height="7.234" width="2.775" y="95.82" x="185.98" fill="#4040FF"/>
	<rect height="49.986" width="4.269" stroke="#000" y="59.077" x="9.607" stroke-width="2" fill="#0000C0"/>
	<rect height="4.63" width="2.848" y="62.732" x="10.362" fill="#C0C0FF"/>
	<rect height="2.819" width="2.808" y="82.221" x="10.332" fill="#fff"/>
	<rect height="19.27" width="2.81" y="85.091" x="10.337" fill="#C0C0FF"/>
	<rect height="7.233" width="2.775" y="95.442" x="10.357" fill="#4040FF"/>
	<rect height="6.087" width="2.617" stroke="#000" y="61.559" x="182.18" stroke-width="2"/>
	<rect height="6.086" width="2.615" stroke="#000" y="100.55" x="181.8" stroke-width="2"/>
	<g stroke="#000" stroke-width="2" transform="matrix(.91366 0 0 1 -158.6 .5)">
		<rect height="6.087" width="2.863" y="60.559" x="189.49"/>
		<rect height="6.086" width="2.863" y="99.552" x="189.08"/>
	</g>
	<path d="m30.349 82.611v1.918l7.047 0.361v-3l-7.047 0.721z" fill="#C0C0FF"/>
	<rect height="11.152" width="119.61" y="86.548" x="40.126" fill="#4040FF"/>
	<rect height="2.502" width="119.66" y="71.923" x="40.201" fill="#676BFF"/>
	<path d="m30.218 96.712l-0.149-1.231 8.312 6.653 0.172 1.428-8.335-6.848z" fill="#000040"/>
	<path d="m30.021 70.771l0.005 2.252 8.312-6.484 0.016-2.619-8.333 6.851z" fill="#000040"/>
	<path d="m29.856 96.141l0.005-2.252 8.312 6.483 0.016 2.619-8.333-6.849z" fill="#000040"/>
	<path d="m169.9 70.723l-0.005 2.252-8.312-6.484-0.017-2.619 8.33 6.851z" fill="#000040"/>
	<path d="m170.07 97.117l-0.006-2.252-8.312 6.484-0.017 2.619 8.34-6.853z" fill="#000040"/>
	<path d="m162.15 86.361v11.152l7.325-4.873v-6.279h-7.33z" fill="#4040FF"/>
	<path d="m161.95 71.834v2.502l7.842 3.581v-1.507l-7.84-4.576z" fill="#676BFF"/>
	<path d="m37.814 86.421v11.152l-7.326-4.873v-6.279h7.326z" fill="#4040FF"/>
	<path d="m38.016 71.894v2.502l-7.841 3.581v-1.507l7.841-4.576z" fill="#676BFF"/>
</g>
</svg>
