<?xml version="1.0" encoding="UTF-8" standalone="no"?>
<svg xmlns:rdf="http://www.w3.org/1999/02/22-rdf-syntax-ns#" xmlns="http://www.w3.org/2000/svg" xml:space="preserve" overflow="visible" height="436" viewBox="0 0 435.999 436" width="436" version="1.0" enable-background="new 0 0 435.999 436" xmlns:cc="http://creativecommons.org/ns#" xmlns:dc="http://purl.org/dc/elements/1.1/">
<circle cy="218" cx="218" r="218" fill="none"/>
<radialGradient id="XMLID_3_" gradientUnits="userSpaceOnUse" cy="77.766" cx="211.73" r="334.61">
	<stop stop-color="#fff" offset=".0056"/>
	<stop stop-color="#F9FBFC" offset=".1263"/>
	<stop stop-color="#E5EDEF" offset=".6479"/>
	<stop stop-color="#DEE8EB" offset="1"/>
</radialGradient>
<circle cx="218" cy="218" r="13.479"/><path opacity=".7" fill="url(#XMLID_3_)" d="m218 120.92c77.448 0 149.58 14.235 210.09 38.748-25.51-92.076-109.9-159.67-210.09-159.67s-184.58 67.594-210.09 159.66c60.509-24.51 132.64-38.74 210.09-38.74z"/>
<linearGradient id="XMLID_4_" y2="-.4741" gradientUnits="userSpaceOnUse" x2="218" y1="195.39" x1="218">
	<stop stop-color="#fff" offset="0"/>
	<stop stop-color="#576173" offset="1"/>
</linearGradient>
<path opacity=".48" d="m218 9.607c110.04 0 201.15 81.037 216.93 186.69-10.9-110.21-103.86-196.3-216.93-196.3s-206.03 86.089-216.93 196.3c15.777-105.66 106.89-186.69 216.93-186.69z" fill="url(#XMLID_4_)"/>
</svg>
