<?xml version="1.0" encoding="UTF-8" standalone="no"?>
<svg xmlns="http://www.w3.org/2000/svg" width="161.26px" xml:space="preserve" height="150.85px" viewBox="0 0 161.26 150.85" baseProfile="tiny" version="1.2" y="0px" x="0px" xmlns:xlink="http://www.w3.org/1999/xlink">
<path d="m33.662 138.5v-61.826h94.544v61.821h-94.548z" stroke="#000" stroke-width="2.8558" fill="#C0C0C0"/>
<rect height="9.794" width="91.396" y="109.95" x="35.432" fill="#fff"/>
<rect height="2.313" width="91.864" y="134.6" x="35.077" fill="#808080"/>
<rect height="2.314" width="91.717" y="78.77" x="35.117" fill="#808080"/>
<g transform="translate(-19.274 -23.586)">
	<path d="m86.157 52.962h24.096l0.087 66.041c-0.062 9.159-23.851 9.654-24.183 0v-66.038z" stroke="#000" stroke-width="2" fill="#C0C0C0"/>
	<g transform="matrix(0 -.83832 .83832 0 23.717 184.11)">
		<path d="m154.45 80.535v5.717h-83.29c0.211-2.424 0.846-4.324 1.408-5.753l81.882 0.036z" fill="#fff"/>
		<path d="m154.76 76.063v2.761l-81.322 0.006c0.619-0.692 1.615-2.577 4.303-2.732l77.019-0.035z" fill="#808080"/>
		<path d="m154.72 98.965v2.761l-77.596-0.036c-2.534-0.655-3.59-2.493-3.625-2.796l81.221 0.071z" fill="#808080"/>
	</g>
</g>
<path d="m29.688 7.544h99.778v17.228c-22.072 6.892-73.11 9.763-99.778 0v-17.228z" stroke="#000" stroke-width="1.6766" fill="#ADADAD"/>
<ellipse rx="50.719" cy="8.243" ry="7.404" stroke="#000" cx="78.975" stroke-width="2" fill="#eee"/>
<path d="m31.582 11.879l4.793 1.28-0.057 13.054c-2.061-0.462-3.795-1.127-4.794-1.334l0.058-13z" fill="#fff"/>
<path d="m29.443 10.864s1.309 0.724 2.314 1.021l-0.024 13.022c-0.551-0.248-1.618-0.418-2.231-0.793l-0.059-13.25z" fill="#545454"/>
<path d="m36.598 13.189c1.541 0.445 4.793 0.986 6.243 1.369l-0.017 13.254c-2.478-0.657-5.973-1.53-6.616-1.621l0.39-13.002z" fill="#808080"/>
<path d="m125.37 12.228l-4.794 1.244 0.057 12.678c2.062-0.448 3.796-1.095 4.795-1.296l-0.07-12.626z" fill="#fff"/>
<path d="m127.51 11.243s-1.308 0.702-2.313 0.992l0.023 12.647c0.551-0.241 1.619-0.406 2.232-0.77l0.06-12.869z" fill="#484848"/>
<path d="m120.59 13.445c-0.608 0.206-1.941 0.363-2.515 0.521l0.059 12.769c0.977-0.275 2.355-0.611 2.609-0.605l-0.16-12.685z" fill="#808080"/>
<path d="m31.427 8.396c0-2.861 18.414-5.181 41.128-5.181 22.715 0 41.129 2.319 41.129 5.181s-18.414 5.181-41.129 5.181c-22.709 0-41.124-2.319-41.124-5.181z" fill="#404040"/>
<path d="m50.99 8.165c0-2.18 15.952-3.947 35.629-3.947s35.628 1.768 35.628 3.947c0 2.181-15.951 3.947-35.628 3.947s-35.632-1.767-35.632-3.947z" fill="#D7D5D5"/>
<g transform="translate(-19.786 -24.087)">
	<rect height="84.77" width="28.234" stroke="#000" y="87.154" x="22.798" stroke-width="2"/>
	<rect height="85.509" width="31.018" stroke="#000" y="86.784" x="21.138" stroke-width="2" fill="#242424"/>
	<rect height="21.889" width="28.978" y="140.79" x="22.174" fill="#808080"/>
	<rect height="5.792" width="28.508" y="88.736" x="22.398" fill="#808080"/>
	<rect height="40.747" width="28.553" y="94.383" x="22.464" fill="#C0C0C0"/>
	<rect height="9.776" width="28.876" y="133.98" x="22.277" fill="#fff"/>
	<rect height="2.874" width="28.978" y="127.88" x="22.189" fill="#fff"/>
</g>
<rect height="2.874" width="87.936" y="103.46" x="36.364" fill="#fff"/>
<g transform="translate(107.21 -24.087)">
	<rect height="84.77" width="28.234" stroke="#000" y="87.154" x="22.798" stroke-width="2"/>
	<rect height="85.51" width="31.018" stroke="#000" y="86.783" x="21.138" stroke-width="2" fill="#242424"/>
	<rect height="21.889" width="28.978" y="140.79" x="22.174" fill="#808080"/>
	<rect height="5.793" width="28.508" y="88.735" x="22.398" fill="#808080"/>
	<rect height="40.746" width="28.553" y="94.384" x="22.464" fill="#C0C0C0"/>
	<rect height="9.777" width="28.876" y="133.98" x="22.277" fill="#fff"/>
	<rect height="2.873" width="28.978" y="127.88" x="22.189" fill="#fff"/>
</g>
</svg>
