<?xml version="1.0" encoding="UTF-8" standalone="no"?>
<svg xmlns:rdf="http://www.w3.org/1999/02/22-rdf-syntax-ns#" xmlns="http://www.w3.org/2000/svg" xml:space="preserve" overflow="visible" height="50.826" viewBox="0 0 35.898 50.826" width="35.898" version="1.1" enable-background="new 0 0 35.898 50.826" xmlns:cc="http://creativecommons.org/ns#" xmlns:dc="http://purl.org/dc/elements/1.1/">
<path id="bgColor00" d="m32.52 2.068v2.699c0.352 0.568 0.559 1.234 0.559 1.953 0 2.055-1.668 3.723-3.727 3.723s-3.727-1.668-3.727-3.723c0-0.719 0.207-1.385 0.559-1.953v-2.699h-5.027v2.699c0.352 0.568 0.559 1.234 0.559 1.953 0 2.055-1.672 3.723-3.727 3.723-2.059 0-3.727-1.668-3.727-3.723 0-0.719 0.207-1.385 0.555-1.953v-2.699h-5.024v2.699c0.352 0.568 0.555 1.234 0.555 1.953 0 2.055-1.668 3.723-3.727 3.723-2.055 0-3.723-1.668-3.723-3.723 0-0.719 0.203-1.385 0.555-1.953v-2.699h-3.453v36.875l0.883 0.885 11 10.998h24.016v-48.758h-3.379zm0.363 45.742h-17.055c-4.48 0-2.324-10.621-2.324-10.621s-10.355 2.518-10.488-2.23v-21.676h29.867v34.527zm-2.625-25.037h-23.926v3.707h23.926v-3.707zm0-6.236h-23.926v3.707h23.926v-3.707zm0 12.472h-23.926v3.707h23.926v-3.707zm-0.906-20.118c1.023 0 1.855-0.83 1.855-1.854v-5.183c0-1.024-0.832-1.854-1.855-1.854s-1.855 0.83-1.855 1.854v5.184c-0.001 1.023 0.831 1.853 1.855 1.853m-22.727 0c1.023 0 1.852-0.83 1.852-1.854v-5.183c0-1.024-0.829-1.854-1.852-1.854-1.027 0-1.855 0.83-1.855 1.854v5.184c0 1.023 0.828 1.853 1.855 1.853m11.363 0c1.023 0 1.855-0.83 1.855-1.854v-5.183c0.001-1.024-0.831-1.854-1.855-1.854s-1.855 0.83-1.855 1.854v5.184c0 1.023 0.832 1.853 1.855 1.853"/>
</svg>
