<?xml version="1.0" encoding="UTF-8" standalone="no"?>
<svg xmlns:rdf="http://www.w3.org/1999/02/22-rdf-syntax-ns#" xmlns="http://www.w3.org/2000/svg" xml:space="preserve" overflow="visible" height="53.902" viewBox="0 0 53.902 53.902" width="53.902" version="1.1" enable-background="new 0 0 53.902 53.902" xmlns:cc="http://creativecommons.org/ns#" xmlns:dc="http://purl.org/dc/elements/1.1/">
<path id="bgColor00" d="m25.153 38.013h-7.35v-22.043h7.35v22.043zm10.211-22.049h-7.348v22.055h7.348v-22.055zm18.538 10.985c0 14.867-12.086 26.953-26.953 26.953-14.855 0-26.949-12.086-26.949-26.953 0-14.859 12.094-26.949 26.949-26.949 14.867 0 26.953 12.09 26.953 26.949zm-3.964 0c0-12.691-10.285-22.98-22.988-22.98-12.697 0-22.99 10.289-22.99 22.98 0 12.695 10.293 22.992 22.99 22.992 12.702 0 22.988-10.297 22.988-22.992z"/>
</svg>
