<?xml version="1.0" encoding="UTF-8" standalone="no"?>
<svg xmlns:rdf="http://www.w3.org/1999/02/22-rdf-syntax-ns#" xmlns="http://www.w3.org/2000/svg" xml:space="preserve" overflow="visible" height="35.734" viewBox="0 0 37.534 35.734" width="37.534" version="1.1" enable-background="new 0 0 37.534 35.734" xmlns:cc="http://creativecommons.org/ns#" xmlns:dc="http://purl.org/dc/elements/1.1/">
<path id="bgColor00" d="m30.128 0.641c0.324 0.324 0.43 0.754 0.43 1.184v4.934h5.152c0.428 0 0.857 0.109 1.285 0.43v0.105c0.322 0.324 0.43 0.754 0.539 1.184v18.781c-0.109 0.535-0.217 0.855-0.539 1.285-0.428 0.324-0.857 0.539-1.285 0.539h-5.152v4.934c0 0.43-0.105 0.754-0.43 1.074v0.105c-0.213 0.324-0.643 0.539-1.074 0.539-0.428 0-0.75 0-1.18-0.215l-27.043-16.098c-0.32-0.215-0.535-0.535-0.75-0.965-0.107-0.43-0.107-0.75 0-1.18 0.215-0.43 0.43-0.645 0.75-0.969l27.043-15.988c0.43-0.32 0.752-0.32 1.18-0.32 0.431 0.105 0.861 0.32 1.074 0.641z"/>
</svg>
