<?xml version="1.0" encoding="UTF-8" standalone="no"?>
<svg xmlns="http://www.w3.org/2000/svg" width="154.17px" xml:space="preserve" height="153.28px" viewBox="0 0 154.174 153.277" baseProfile="tiny" version="1.2" y="0px" x="0px" xmlns:xlink="http://www.w3.org/1999/xlink">
<g transform="translate(-17.473 -32.222)">
	<path d="m41.141 146.49h122.55v-73.964l-122.69 0.047 0.141 73.917z" stroke="#000" stroke-width="2" fill="#C0C0C0"/>
	<rect height="3.453" width="105.2" y="72.763" x="47.604" fill="#808080"/>
	<rect height="3.029" width="103.9" y="142.11" x="47.837" fill="#808080"/>
	<rect height="3.843" width="104.39" y="106.22" x="47.813" fill="#fff"/>
	<rect height="1.416" width="104.2" y="77.679" x="47.8" fill="#808080"/>
	<rect height="1.646" width="105.35" y="138.9" x="47.82" fill="#808080"/>
	<rect y="73.892" x="47.352" height=".641" width="104.23"/>
	<rect y="144.15" x="47.417" height=".641" width="104.23"/>
	<line y2="144.19" stroke-width="2" x2="60.5" stroke="#fff" y1="92.519" x1="60.5" fill="none"/>
</g>
<path d="m27.027 107.78h93c4.143 0 7.5 2.977 7.5 6.648v25.704c0 3.672-3.357 6.647-7.5 6.647h-93c-4.142 0-7.5-2.976-7.5-6.647v-25.704c-0.003-3.68 3.355-6.65 7.497-6.65z" stroke="#000" stroke-width="4" fill="#C0C0C0"/>
<rect height="22.388" width="94" stroke="#000" y="124.78" x="35.527" stroke-width="3.8633" fill="#C0C0C0"/>
<rect height="2.978" width="93.296" y="143.17" x="35.851" fill="#808080"/>
<path d="m129.02 134.95v-10.611h-93.077v10.611h93.077z" fill="#C0C0C0"/>
<path d="m129 128.49v-4.111h-92.931v4.111h92.931z" fill="#808080"/>
<path d="m129.06 143.34v-6.259h-93.077v6.259h93.077z" fill="#C0C0C0"/>
<rect y="124.25" x="35.798" height=".893" width="93.247"/>
<rect height="11.48" width="7.486" stroke="#000" y="129.08" x="131.22" stroke-width=".9315" fill="#C0C0C0"/>
<path d="m138.39 131.9v-2.375h-7.49v2.375h7.49z" fill="#808080"/>
<path d="m138.4 136.32v-1.983h-7.513v1.983h7.51z" fill="#fff"/>
<rect height="4" width="79" stroke="#000" y="148.78" x="24.527" fill="#C0C0C0"/>
<rect height="138" width="4" stroke="#000" y="8.278" x="13.027" stroke-width="1.3217" fill="#C0C0C0"/>
<rect height="23" width="5" stroke="#000" y=".5" x="29.417" fill="#C0C0C0"/>
<rect height="8" width="3" stroke="#000" y="12.778" x="34.527" fill="#808080"/>
<path d="m138.39 138.61v-2.33h-7.519v2.33h7.52z" fill="#C0C0C0"/>
<path d="m138.44 134.35v-2.455h-7.519v2.455h7.52z" fill="#C0C0C0"/>
<path d="m138.38 140.86v-2.313h-7.494v2.313h7.49z" fill="#808080"/>
<rect height="125.85" width="9.314" stroke="#000" y="14.255" x="18.598" stroke-width="4.2164" fill="#C0C0C0"/>
<rect height="48.443" width="6.226" y="56.822" x="20" fill="#808080"/>
<rect height="4.666" width="5.938" y="45.545" x="20.013" fill="#fff"/>
<rect y="136.21" x="18.293" height="4.705" width="9.187"/>
<rect y="11.72" x="19.791" height="3.738" width="7.589"/>
<rect y="133.59" x="19.63" height="6.641" width="6.974"/>
<path d="m129 138.12v-3.988h-93.055v3.988h93.055z" fill="#fff"/>
<rect height="3.304" width="6.452" y="16.327" x="20.047" fill="#808080"/>
<rect height="2.826" width="6.297" y="20.808" x="20.09" fill="#808080"/>
<g transform="translate(-1 -32.418)">
	<rect height="3.304" width="6.453" y="45.59" x="21.041" fill="#808080"/>
	<rect y="47.057" x="20.482" height="1.525" width="7.589"/>
</g>
<g transform="translate(-17.473 -32.222)">
	<rect height="125.85" width="9.315" stroke="#000" y="46.202" x="19.581" stroke-width="2" fill="#C0C0C0"/>
	<rect height="48.442" width="6.227" y="88.768" x="20.982" fill="#808080"/>
	<rect height="4.666" width="5.938" y="77.491" x="20.996" fill="#fff"/>
	<rect y="168.15" x="19.275" height="4.705" width="9.188"/>
	<rect height="3.305" width="6.452" y="48.273" x="21.029" fill="#808080"/>
	<rect y="166.96" x="20.746" height="6.641" width="6.974"/>
	<rect height="2.826" width="6.407" y="52.699" x="20.985" fill="#808080"/>
	<rect height="3.304" width="6.452" y="45.59" x="21.042" fill="#808080"/>
	<rect y="47.056" x="20.482" height="1.526" width="7.589"/>
	<rect height="3.304" width="6.452" y="166.79" x="20.976" fill="#808080"/>
	<rect height="2.826" width="6.297" y="162.79" x="21.019" fill="#808080"/>
	<g transform="matrix(1 0 0 -1 -.069984 218.84)">
		<rect height="-3.304" width="6.452" y="48.894" x="21.041" fill="#808080"/>
		<rect y="48.582" x="20.482" height="-1.525" width="7.589"/>
	</g>
</g>
<g transform="matrix(1 0 0 -1 -17.476 186.39)">
	<rect height="-3.304" width="6.452" y="51.853" x="37.519" fill="#808080"/>
	<rect height="-2.826" width="6.297" y="55.856" x="37.562" fill="#808080"/>
	<g transform="translate(16.473 -.19596)">
		<rect height="-3.304" width="6.452" y="48.894" x="21.041" fill="#808080"/>
		<rect y="48.583" x="20.481" height="-1.526" width="7.59"/>
	</g>
</g>
<g transform="translate(-17.473 -32.222)">
	<rect height="80.315" width="19.673" stroke="#000" y="67.967" x="151.36" stroke-width=".5" fill="#808080"/>
	<rect height="7.438" width="18.012" y="73.84" x="152.09" fill="#C0C0C0"/>
	<rect height="4.528" width="17.993" y="80.164" x="152.17" fill="#fff"/>
	<rect height="15.723" width="17.798" y="123.14" x="152.2" fill="#C0C0C0"/>
	<rect y="144.38" x="152.1" height="3.745" width="18.179"/>
	<rect height="2.859" width="17.956" y="141.53" x="152.11" fill="#808080"/>
	<rect y="68.465" x="151.82" height="2.066" width="18.451"/>
	<rect y="71.693" x="151.44" height="1.363" width="19.033"/>
	<rect height="2" width="18.078" y="73.324" x="152.05" fill="#808080"/>
	<rect y="142.22" x="151.96" height=".954" width="19.505"/>
</g>
</svg>
