<?xml version="1.0" encoding="UTF-8" standalone="no"?>
<svg xmlns="http://www.w3.org/2000/svg" width="104.52px" xml:space="preserve" height="148.89px" viewBox="0 0 104.516 148.886" baseProfile="tiny" version="1.2" y="0px" x="0px" xmlns:xlink="http://www.w3.org/1999/xlink">
<g transform="translate(-46.648 -22.26)">
	<rect height="54.457" width="54.456" stroke="#000" y="23.111" x="70.047" stroke-width="2" fill="#00C000"/>
	<path d="m150.6 32.187v26.094h-26.094v-26.094h26.09z" stroke="#000" stroke-width="2" fill="#00C000"/>
	<path d="m115.63 98.137c-5.423 27.631 14.361 19.359 31.628 19.762l-0.001 30.404c-30.319-2.262-30.341 2.902-31.084 22.197l-36.401-0.033c-0.1-25.316-10.311-22.732-32.467-21.586l-0.009-30.592c23.326 1.823 36.51-0.403 32.608-20.202l35.719 0.049z" stroke="#000" stroke-width="2" fill="#0A9A0A"/>
	<path d="m78.366 78.86v22.123h-7.941v-22.12h7.941z" stroke="#000" stroke-width="2" fill="#008000"/>
	<path d="m123.12 78.86v22.123h-7.942v-22.12h7.94z" stroke="#000" stroke-width="2" fill="#008000"/>
	<path d="m108.05 78.86v22.123h-7.941v-22.12h7.94z" stroke="#000" stroke-width="2" fill="#008000"/>
	<path d="m93.367 78.86v22.123h-7.941v-22.12h7.941z" stroke="#000" stroke-width="2" fill="#008000"/>
	<path d="m123.94 80.971v7.941h-54.461v-7.941h54.461z" stroke="#000" stroke-width="2" fill="#00C000"/>
	<path d="m123.94 88.913v9.644h-54.461v-9.644h54.461z" stroke="#000" stroke-width="2" fill="#00C000"/>
	<path d="m150.05 53.264v4.412h-25.04v-4.412h25.04z" fill="#008000"/>
	<path d="m149.99 32.842v2.143h-25.04v-2.143h25.04z" fill="#008000"/>
	<path d="m149.99 34.985v2.143h-25.04v-2.143h25.04z" fill="#39FB39"/>
	<path d="m141.52 22.828v44.813h-7.941v-44.813h7.94z" stroke="#000" stroke-width="2" fill="#00C000"/>
	<path d="m140.99 63.853v3.403h-6.889v-3.403h6.89z" fill="#008000"/>
	<path d="m140.99 23.451v3.403h-6.889v-3.403h6.89z" fill="#008000"/>
	<path d="m123.32 95.869v2.102h-53.298v-2.102h53.298z" fill="#008000"/>
	<path d="m73.016 88.352h-3.096v-6.834h3.097v6.834z" fill="#008000"/>
	<path d="m99.007 88.226h-2.213v-6.708h2.213v6.708z" fill="#04E204"/>
	<path d="m123.32 89.459v2.213h-53.298v-2.213h53.298z" fill="#04E204"/>
	<rect height="6.24" width="11.345" stroke="#000" y="90.615" x="91.001" stroke-width="2" fill="#fff"/>
	<rect y="119.07" x="69.762" height="1.639" width="53.89"/>
	<rect height="9.076" width="2.269" stroke="#000" y="119.95" x="95.573" stroke-width="2"/>
	<path d="m101.85 124.68v15.127h-9.914v-15.13h9.914z" stroke="#000" stroke-width="2" fill="#23F923"/>
	<path d="m123.62 88.352h-3.097v-6.834h3.097v6.834z" fill="#008000"/>
	<path d="m87.749 88.307h-14.334v-6.708h14.334v6.708z" fill="#0AB20A"/>
	<rect height="4.791" width="35.791" y="165" x="80.209" fill="#036B03"/>
	<path d="m95.728 125.31v18.91h-3.405v-18.91h3.405z" fill="#00C000"/>
	<path d="m103.74 128.84v7.563h-13.692v-7.563h13.692z" stroke="#000" stroke-width="2" fill="#008000"/>
	<path d="m93.578 129.58v6.245h-3.142v-6.245h3.142z" fill="#045C04"/>
	<path d="m65.311 142.86c12.401-0.152 15.831 11.151 14.776 17.33-1.584-8.675-8.443-13.36-14.776-12.537h-17.322v-4.793h17.322z" fill="#036B03"/>
	<g transform="translate(-82.596 -.00024054)">
		<path d="m144.52 98.557v71.474h-11.912v-71.473h11.91z" stroke="#000" stroke-width="2" fill="#00C000"/>
		<path d="m143.96 165.55v3.921h-10.849v-3.921h10.85z" fill="#008000"/>
		<path d="m143.96 99.12v3.921h-10.775v-3.92h10.78z" fill="#008000"/>
		<path d="m143.97 103.42v14.256h-10.776v-14.256h10.78z" fill="#0BF90B"/>
		<path d="m143.92 154.45v10.122h-10.78v-10.122h10.78z" fill="#19E119"/>
		<path d="m143.88 143.04v4.438h-10.703v-4.438h10.7z" fill="#19E119"/>
	</g>
	<path d="m125.63 140.84v5.563h-59.693v-5.563h59.693z" stroke="#000" stroke-width="2" fill="#40FF40"/>
	<path d="m74.483 141.38v4.397h-8.155v-4.397h8.155z" fill="#00C000"/>
	<path d="m124.88 141.39v4.398h-8.155v-4.398h8.16z" fill="#00C000"/>
	<path d="m103.63 139.84v7.563h-13.693v-7.563h13.693z" stroke="#000" stroke-width="2" fill="#008000"/>
	<path d="m93.466 140.38v6.509h-3.142v-6.509h3.142z" fill="#045C04"/>
	<path d="m128.66 142.86c-12.4-0.152-14.774 11.151-13.72 17.33 1.583-8.675 7.388-13.36 13.72-12.537h17.322v-4.793h-17.32z" fill="#036B03"/>
		<path d="m144.52 98.557v71.474h-11.912v-71.473h11.91z" stroke="#000" stroke-width="2" fill="#00C000"/>
		<path d="m143.96 165.55v3.921h-10.849v-3.921h10.85z" fill="#008000"/>
		<path d="m143.96 99.12v3.921h-10.78v-3.92h10.78z" fill="#008000"/>
		<path d="m143.97 103.42v14.256h-10.775v-14.256h10.77z" fill="#0BF90B"/>
		<path d="m143.92 154.45v10.121h-10.776v-10.121h10.78z" fill="#19E119"/>
		<path d="m143.88 143.04v4.438h-10.702v-4.438h10.7z" fill="#19E119"/>
	<path d="m123.69 35v41.915h-53.147v-32.915l53.147-9z" fill="#05E105"/>
	<path d="m123.78 54.144v22.916h-53.147v-13.916l53.147-9z" fill="#008000"/>
</g>
</svg>
