<?xml version="1.0" encoding="UTF-8" standalone="no"?>
<svg xmlns="http://www.w3.org/2000/svg" width="120.83px" xml:space="preserve" height="100.2px" viewBox="0 0 120.828 100.201" baseProfile="tiny" version="1.2" y="0px" x="0px" xmlns:xlink="http://www.w3.org/1999/xlink">
<g transform="translate(-39.513 -41.311)">
	<path d="m158.27 43.603s-53.458-0.171-56.004-0.171c-12.78-0.576-31.611 3.692-40.748 20.283-6.841 11.343-8.147 26.249-4.383 39.58 3.715 13.157 16.985 30.119 37.864 28.922 22.292 0.339 40.259-19.033 42.229-38.23l20.634 0.187 0.41-50.574z" stroke="#000268" stroke-width="4" fill="#E1E2FF"/>
	<ellipse rx="49" cy="91.513" ry="48" stroke="#000080" cx="90.513" stroke-width="4" fill="#E1E2FF"/>
	<path d="m152.15 92.261h-23.949l-27.731-39.916c-7.872-1.681-13.42-4.118-12.007-5.597 1.413-1.48 17.089-2.615 35.537 0.975l28.15 44.538z" fill="#E1E2FF"/>
	<ellipse rx="26.374" cy="92.468" ry="27.004" stroke="#000080" cx="89.827" stroke-width="3" fill="#00036E"/>
</g>
</svg>
