<?xml version="1.0" encoding="UTF-8" standalone="no"?>
<svg xmlns:rdf="http://www.w3.org/1999/02/22-rdf-syntax-ns#" xmlns="http://www.w3.org/2000/svg" height="79.665" width="155.37" version="1.1" xmlns:cc="http://creativecommons.org/ns#" xmlns:xlink="http://www.w3.org/1999/xlink" xmlns:dc="http://purl.org/dc/elements/1.1/">
 <defs>
  <linearGradient id="path9076_1_" x1="1322.8" gradientUnits="userSpaceOnUse" x2="1321" gradientTransform="matrix(1,0,0,-1,-1178.7,-1564.7)" y1="-1568.8" y2="-1595.7">
   <stop stop-opacity=".45" stop-color="#fff" offset=".0606"/>
   <stop stop-opacity="0" stop-color="#fff" offset=".8909"/>
  </linearGradient>
  <linearGradient id="path9085_1_" x1="1320.9" gradientUnits="userSpaceOnUse" x2="1320.9" gradientTransform="matrix(1,0,0,-1,-1178.7,-1564.7)" y1="-1649.4" y2="-1620.8">
   <stop stop-opacity=".8" offset="0"/>
   <stop stop-opacity="0" offset=".6212"/>
   <stop stop-opacity="0" stop-color="#545454" offset=".8909"/>
  </linearGradient>
  <radialGradient id="path9094_1_" gradientUnits="userSpaceOnUse" cy="1787.5" cx="1262.5" gradientTransform="translate(-1157.8,-1741.5)" r="115.13">
   <stop stop-color="#333" offset=".0909"/>
   <stop offset="1"/>
  </radialGradient>
  <radialGradient id="path9101_1_" gradientUnits="userSpaceOnUse" cy="1787.3" cx="1262.7" gradientTransform="translate(-1157.8,-1741.5)" r="114.49">
   <stop stop-color="#2D2D2D" offset=".0909"/>
   <stop offset="1"/>
  </radialGradient>
  <radialGradient id="path9108_1_" gradientUnits="userSpaceOnUse" cy="1787.1" cx="1262.9" gradientTransform="translate(-1157.8,-1741.5)" r="113.86">
   <stop stop-color="#282828" offset=".0909"/>
   <stop offset="1"/>
  </radialGradient>
  <radialGradient id="path9115_1_" gradientUnits="userSpaceOnUse" cy="1787" cx="1263.1" gradientTransform="translate(-1157.8,-1741.5)" r="113.21">
   <stop stop-color="#222" offset=".0909"/>
   <stop offset="1"/>
  </radialGradient>
  <radialGradient id="path9122_1_" gradientUnits="userSpaceOnUse" cy="1786.8" cx="1263.3" gradientTransform="translate(-1157.8,-1741.5)" r="112.57">
   <stop stop-color="#1C1C1C" offset=".0909"/>
   <stop offset="1"/>
  </radialGradient>
  <radialGradient id="path9129_1_" gradientUnits="userSpaceOnUse" cy="1786.6" cx="1263.6" gradientTransform="translate(-1157.8,-1741.5)" r="111.92">
   <stop stop-color="#171717" offset=".0909"/>
   <stop offset="1"/>
  </radialGradient>
  <radialGradient id="path9136_1_" gradientUnits="userSpaceOnUse" cy="1786.4" cx="1263.8" gradientTransform="translate(-1157.8,-1741.5)" r="111.29">
   <stop stop-color="#111" offset=".0909"/>
   <stop offset="1"/>
  </radialGradient>
  <radialGradient id="path9143_1_" gradientUnits="userSpaceOnUse" cy="1786.3" cx="1264" gradientTransform="translate(-1157.8,-1741.5)" r="110.65">
   <stop stop-color="#0B0B0B" offset=".0909"/>
   <stop offset="1"/>
  </radialGradient>
  <radialGradient id="path9150_1_" gradientUnits="userSpaceOnUse" cy="1786.1" cx="1264.2" gradientTransform="translate(-1157.8,-1741.5)" r="110.01">
   <stop stop-color="#060606" offset=".0909"/>
   <stop offset="1"/>
  </radialGradient>
  <linearGradient id="path9159_1_" x1="1262.5" gradientUnits="userSpaceOnUse" x2="1327.6" gradientTransform="matrix(1,0,0,-1,-1178.7,-1564.7)" y1="-1580.7" y2="-1580.7">
   <stop stop-color="#fff" offset=".0909"/>
   <stop stop-opacity="0" stop-color="#fff" offset="1"/>
  </linearGradient>
  <linearGradient id="path9212_1_" x1="749.95" gradientUnits="userSpaceOnUse" y1="-928.24" gradientTransform="matrix(1 0 0 -1 -353.92 -909.72)" x2="748.67" y2="-917.93">
   <stop stop-color="#fff" stop-opacity="0" offset=".0057"/>
   <stop stop-color="#fff" stop-opacity=".4" offset=".332"/>
   <stop stop-color="#fff" offset=".8616"/>
  </linearGradient>
  <linearGradient id="polygon9350_1_" x1="780.01" gradientUnits="userSpaceOnUse" y1="1652.4" gradientTransform="translate(-749.93,-1558.7)" x2="900.59" y2="1611.1">
   <stop stop-opacity="0" offset="0"/>
   <stop stop-opacity=".4" offset=".3091"/>
   <stop stop-opacity="0" offset="1"/>
  </linearGradient>
  <linearGradient id="linearGradient3508" y2="-429.74" gradientUnits="userSpaceOnUse" y1="-443.91" gradientTransform="matrix(1 0 0 -1 -94.35 -418.9)" x2="475.56" x1="475.49">
   <stop stop-color="#fff" stop-opacity="0" offset=".0612"/>
   <stop stop-color="#fff" stop-opacity=".0489" offset=".0926"/>
   <stop stop-color="#fff" stop-opacity=".4" offset=".3181"/>
   <stop stop-color="#fff" stop-opacity=".4854" offset=".4085"/>
   <stop stop-color="#fff" offset=".7294"/>
  </linearGradient>
 </defs>
 <g transform="translate(-499.46 -612.53)">
  <g transform="matrix(.99997 0 0 .99997 174.19 606.34)">
   <g opacity="0.71" transform="translate(278.01)">
    <path fill="url(#path9076_1_)" d="m200.8 43.378c-0.13-15.019-0.9-26.306-0.93-26.438-0.3-3.927-2.1-8.77-3.12-10.198h-109.85c-1.021 1.428-2.823 6.271-3.124 10.211-0.015 0.067-0.283 3.866-0.521 9.938 39.505 5.495 78.515 10.991 117.56 16.487z"/>
    <path opacity=".7" d="m83.532 54.384c-0.244 23.208 1.29 29.055 1.898 30.136 0.113 0.077 0.232 0.153 0.354 0.231 0.005 0.012 0.007 0.021 0.012 0.035 37.602 0.002 75.193 0 112.79 0 0.004-0.016 0.007-0.021 0.018-0.033 0.113-0.078 0.232-0.156 0.354-0.233 0.607-1.081 2.133-6.929 1.902-30.136h-117.32 0.002z" enable-background="new    " fill="url(#path9085_1_)"/>
    <path fill="url(#path9094_1_)" d="m199.37 83.757c-0.195 0.574-1.079 0.839-1.895 0.839-22.696 0.001-45.394 0-68.081 0-7.881 0-15.771 0.001-23.646 0-6.273 0.001-12.555 0.001-18.834 0-0.812 0.001-1.71-0.263-1.899-0.839-0.343-0.284-3.146-2.961-2.583-35.649 0.063-15.921 0.908-28.233 0.967-28.903 0.088-1.184 0.271-2.355 0.497-3.392 0.912-4.221 2.771-8.76 4.188-8.998 5.821 0 11.646-0.001 17.466 0h23.765c22.329-0.001 44.66-0.001 66.983 0 1.409 0.237 3.266 4.737 4.182 8.933 0.229 1.06 0.42 2.247 0.511 3.454 0.054 0.672 0.908 12.986 0.974 28.905 0.54 32.691-2.25 35.366-2.59 35.65zm2.2-65.077c-0.39-4.949-3.09-12.494-5.01-12.494h-108.75c-1.91-0.001-4.616 7.545-5.01 12.494-0.025-0.001-0.927 12.763-0.988 29.428-0.608 34.163 2.409 36.761 2.682 36.767 0.229 0.664 0.913 0.979 1.864 0.979h111.67c0.953 0 1.637-0.313 1.854-0.979 0.273-0.006 3.283-2.604 2.688-36.767-0.06-16.665-0.96-29.429-0.99-29.428z"/>
    <path opacity=".89440" d="m199.09 83.138c-0.175 0.521-1.173 0.761-1.913 0.761-22.563 0-45.135-0.001-67.697 0-7.835-0.001-15.679 0-23.515 0h-18.73c-0.737-0.001-1.752-0.239-1.936-0.761-0.371-0.441-3.054-3.16-2.523-35.03 0.063-15.507 0.871-27.57 0.955-28.611 0.08-1.257 0.27-2.418 0.473-3.365 0.876-4.118 2.667-8.601 4.034-8.966h107.92c1.361 0.368 3.14 4.811 4.021 8.909 0.206 0.968 0.4 2.145 0.484 3.42 0.081 1.042 0.896 13.111 0.96 28.615 0.53 31.869-2.15 34.587-2.52 35.028zm-111.12-76.603c-1.441 0.133-3.353 4.666-4.299 8.94-0.256 1.135-0.443 2.34-0.527 3.498-0.051 0.371-0.911 12.884-0.979 29.135-0.579 33.343 2.321 35.985 2.626 36.146 0.208 0.613 1.013 0.901 1.89 0.901h111.05c0.876 0 1.675-0.288 1.88-0.901 0.308-0.153 3.196-2.803 2.631-36.146-0.068-16.25-0.942-28.765-0.984-29.138-0.088-1.142-0.271-2.331-0.521-3.455-0.942-4.284-2.854-8.849-4.312-8.98h-90.944c-5.853 0.001-11.687 0.001-17.522 0z" enable-background="new    " fill="url(#path9101_1_)"/>
    <path opacity=".78890" d="m198.81 82.518c-0.16 0.465-1.271 0.683-1.938 0.683h-109.34c-0.663 0-1.792-0.217-1.953-0.683-0.408-0.599-2.97-3.356-2.472-34.41 0.063-15.092 0.839-26.906 0.938-28.318 0.085-1.33 0.271-2.482 0.446-3.336 0.848-4.021 2.563-8.439 3.883-8.939 5.79 0 11.582-0.001 17.372-0.001 7.875 0 15.746 0.001 23.62 0.001h66.642c1.313 0.499 3.021 4.885 3.867 8.883 0.188 0.875 0.371 2.042 0.458 3.387 0.104 1.415 0.883 13.236 0.946 28.323 0.49 31.052-2.07 33.811-2.47 34.41zm-110.7-75.634c-1.396 0.266-3.229 4.746-4.144 8.923-0.229 1.041-0.424 2.234-0.514 3.458-0.059 0.743-0.896 13.007-0.965 28.844-0.548 32.525 2.23 35.207 2.572 35.525 0.19 0.561 1.113 0.824 1.913 0.824 6.271 0 12.542 0.002 18.813 0h91.624c0.799 0 1.706-0.269 1.898-0.824 0.342-0.318 3.117-3 2.577-35.525-0.066-15.834-0.914-28.1-0.978-28.846-0.089-1.211-0.271-2.391-0.498-3.424-0.914-4.185-2.748-8.689-4.146-8.955h-66.953c-7.916 0-15.833 0.001-23.75 0-5.82-0.001-11.638-0.001-17.457 0z" enable-background="new    " fill="url(#path9108_1_)"/>
    <path opacity=".6833" d="m198.52 81.897c-0.146 0.414-1.361 0.604-1.947 0.606-22.318 0-44.636-0.002-66.951 0h-41.786c-0.586 0-1.833-0.193-1.976-0.606-0.446-0.752-2.882-3.556-2.413-33.789 0.064-14.678 0.805-26.243 0.928-28.029 0.084-1.396 0.269-2.541 0.421-3.301 0.813-3.924 2.454-8.282 3.729-8.915 5.771 0 11.55 0 17.325-0.001 7.849 0.001 15.692 0.001 23.547 0.001h66.467c1.267 0.634 2.904 4.959 3.715 8.863 0.162 0.777 0.342 1.936 0.43 3.35 0.122 1.789 0.871 13.362 0.938 28.033 0.45 30.232-1.98 33.036-2.43 33.788zm-110.26-74.664c-1.354 0.396-3.11 4.826-3.994 8.905-0.204 0.949-0.393 2.129-0.479 3.418-0.079 1.116-0.888 13.131-0.953 28.552-0.521 31.707 2.142 34.435 2.521 34.906 0.171 0.509 1.208 0.743 1.934 0.743h109.83c0.723 0 1.742-0.235 1.916-0.743 0.377-0.472 3.029-3.199 2.521-34.906-0.063-15.417-0.885-27.438-0.963-28.557-0.09-1.282-0.271-2.452-0.473-3.392-0.879-4.087-2.639-8.531-3.997-8.927h-66.777c-7.894 0-15.78-0.001-23.676 0-5.804 0.001-11.607 0.001-17.409 0.001z" enable-background="new    " fill="url(#path9115_1_)"/>
    <path opacity=".57780" d="m198.24 81.277c-0.123 0.362-1.456 0.529-1.966 0.529h-66.576c-7.703-0.001-15.41 0-23.115 0.001-6.146-0.001-12.297-0.001-18.44 0-0.518 0-1.875-0.169-2-0.53-0.482-0.906-2.795-3.754-2.354-33.168 0.063-14.263 0.767-25.579 0.912-27.736 0.091-1.468 0.262-2.605 0.396-3.277 0.771-3.824 2.348-8.12 3.565-8.883h107.05c1.223 0.763 2.787 5.035 3.563 8.836 0.139 0.687 0.309 1.839 0.399 3.318 0.146 2.161 0.856 13.489 0.924 27.742 0.45 29.414-1.87 32.26-2.35 33.168zm-109.83-73.693c-1.305 0.527-2.995 4.901-3.841 8.886-0.188 0.851-0.355 2.021-0.45 3.378-0.098 1.49-0.876 13.252-0.94 28.262-0.485 30.888 2.05 33.658 2.459 34.285 0.158 0.455 1.313 0.668 1.958 0.667 6.208 0.001 12.414 0.001 18.62 0h23.354c22.416-0.001 44.832 0 67.249 0 0.646 0 1.773-0.213 1.936-0.667 0.416-0.628 2.945-3.397 2.463-34.285-0.063-15.002-0.85-26.773-0.938-28.267-0.094-1.349-0.271-2.514-0.447-3.359-0.841-3.987-2.534-8.373-3.841-8.899h-90.21c-5.79 0-11.575 0-17.363-0.001z" enable-background="new    " fill="url(#path9122_1_)"/>
    <path opacity=".47220" d="m197.96 80.658c-0.104 0.307-1.549 0.45-1.979 0.449-22.067 0-44.135 0.001-66.201 0-7.662 0.001-15.322 0-22.983 0h-18.354c-0.438 0-1.914-0.143-2.021-0.449-0.521-1.063-2.711-3.955-2.292-32.549 0.063-13.848 0.731-24.916 0.898-27.446 0.095-1.535 0.256-2.669 0.369-3.245 0.739-3.728 2.239-7.961 3.414-8.857 5.744 0.001 11.483 0 17.229 0h89.529c1.173 0.897 2.671 5.107 3.404 8.812 0.121 0.594 0.274 1.734 0.379 3.284 0.164 2.534 0.847 13.613 0.906 27.452 0.4 28.594-1.79 31.484-2.31 32.549zm-109.41-72.726c-1.258 0.66-2.877 4.979-3.686 8.869-0.157 0.754-0.327 1.915-0.422 3.341-0.118 1.858-0.865 13.373-0.926 27.968-0.472 30.07 1.941 32.884 2.396 33.663 0.146 0.402 1.408 0.592 1.983 0.592h108.62c0.563 0 1.813-0.189 1.944-0.592 0.454-0.777 2.861-3.593 2.406-33.663-0.063-14.586-0.813-26.112-0.933-27.976-0.1-1.418-0.271-2.574-0.418-3.331-0.811-3.887-2.435-8.211-3.688-8.872h-89.97c-5.78 0.002-11.548 0.001-17.319 0.001z" enable-background="new    " fill="url(#path9129_1_)"/>
    <path opacity=".3667" d="m197.68 80.039c-0.088 0.25-1.646 0.371-2.003 0.371h-106.94c-0.363 0-1.953-0.119-2.044-0.373-0.561-1.22-2.623-4.154-2.231-31.929 0.063-13.435 0.698-24.253 0.888-27.152 0.103-1.61 0.251-2.734 0.347-3.219 0.701-3.628 2.128-7.799 3.257-8.83 5.729 0.001 11.458 0.001 17.188 0.001h89.28c1.133 1.03 2.563 5.181 3.258 8.789 0.096 0.499 0.241 1.633 0.348 3.248 0.188 2.908 0.835 13.742 0.894 27.163 0.38 27.776-1.68 30.708-2.25 31.931zm-108.98-71.756c-1.208 0.791-2.76 5.055-3.534 8.849-0.131 0.658-0.295 1.81-0.393 3.3-0.144 2.233-0.854 13.501-0.912 27.679-0.438 29.251 1.848 32.107 2.342 33.042 0.12 0.353 1.504 0.517 2.002 0.517h108.02c0.498 0 1.854-0.166 1.977-0.517 0.492-0.938 2.772-3.792 2.348-33.042-0.063-14.171-0.781-25.448-0.918-27.686-0.102-1.483-0.262-2.636-0.396-3.298-0.769-3.789-2.317-8.053-3.532-8.841-22.085 0-44.171 0-66.256-0.001-7.823 0.002-15.646 0.002-23.476 0.001-5.755-0.001-11.513 0-17.267 0 0.003-0.002 0.003-0.003 0.003-0.003z" enable-background="new    " fill="url(#path9136_1_)"/>
    <path opacity=".26110" d="m197.41 79.417c-0.07 0.199-1.736 0.291-2.021 0.291h-106.35c-0.287 0-1.996-0.094-2.063-0.291-0.604-1.375-2.538-4.354-2.169-31.313 0.055-13.019 0.659-23.589 0.866-26.863 0.104-1.677 0.242-2.795 0.314-3.185 0.659-3.532 2.022-7.64 3.104-8.8 5.715 0 11.427-0.001 17.142-0.001h89.044c1.078 1.161 2.449 5.248 3.099 8.765 0.072 0.403 0.222 1.527 0.319 3.211 0.207 3.283 0.823 13.868 0.879 26.873 0.36 26.96-1.57 29.938-2.17 31.313zm-108.57-70.786c-1.165 0.921-2.646 5.132-3.381 8.831-0.105 0.565-0.264 1.705-0.359 3.262-0.158 2.605-0.844 13.622-0.898 27.385-0.413 28.434 1.751 31.331 2.28 32.422 0.104 0.301 1.604 0.436 2.021 0.436h107.42c0.421 0 1.894-0.137 1.987-0.436 0.531-1.091 2.693-3.99 2.289-32.422-0.063-13.754-0.746-24.783-0.904-27.395-0.103-1.557-0.258-2.694-0.369-3.266-0.719-3.692-2.211-7.894-3.377-8.816-22.021-0.001-44.055 0-66.082-0.001-7.799 0.001-15.599 0-23.396 0-5.75-0.001-11.488 0-17.23 0z" enable-background="new    " fill="url(#path9143_1_)"/>
    <path opacity=".15560" d="m197.13 78.796c-0.053 0.146-1.821 0.216-2.03 0.216-21.7-0.001-43.397-0.001-65.1-0.001-7.525 0.001-15.063 0-22.594 0-6.02 0.001-12.044 0-18.065 0.001-0.211-0.001-2.029-0.07-2.089-0.216-0.643-1.53-2.45-4.549-2.104-30.688 0.054-12.604 0.625-22.925 0.854-26.569 0.11-1.749 0.239-2.859 0.293-3.158 0.611-3.438 1.911-7.481 2.946-8.775 5.699 0.001 11.396 0.001 17.095 0.001 7.736 0 15.477 0 23.207-0.001 21.866 0.001 43.732 0 65.604 0.001 1.027 1.293 2.35 5.321 2.94 8.74 0.06 0.311 0.186 1.431 0.293 3.18 0.228 3.654 0.813 13.991 0.863 26.581 0.34 26.14-1.47 29.158-2.11 30.688zm-108.14-69.817c-1.119 1.056-2.551 5.207-3.229 8.815-0.087 0.466-0.229 1.596-0.337 3.219-0.181 2.981-0.82 13.744-0.885 27.095-0.389 27.613 1.648 30.558 2.22 31.802 0.085 0.244 1.7 0.359 2.054 0.359h106.81c0.344 0 1.922-0.111 2.006-0.359 0.572-1.246 2.607-4.188 2.229-31.802-0.063-13.337-0.71-24.119-0.896-27.105-0.104-1.624-0.251-2.758-0.342-3.235-0.673-3.596-2.102-7.734-3.223-8.789h-106.42z" enable-background="new    " fill="url(#path9150_1_)"/>
    <path opacity=".05" enable-background="new    " d="m196.85 78.175c-0.032 0.093-1.918 0.139-2.059 0.139h-64.727c-7.49 0-14.979-0.001-22.467-0.001-5.99 0.001-11.98 0.001-17.978 0.001-0.135-0.001-2.069-0.046-2.104-0.139-0.688-1.684-2.365-4.75-2.041-30.066 0.053-12.19 0.593-22.261 0.839-26.277 0.117-1.817 0.231-2.923 0.268-3.129 0.521-3.35 1.812-7.318 2.792-8.744 5.688-0.001 11.364-0.001 17.053 0 7.712-0.001 15.425 0 23.137-0.001 21.809 0 43.619 0.001 65.428 0.001 0.99 1.425 2.271 5.385 2.788 8.714 0.04 0.218 0.153 1.328 0.271 3.146 0.24 4.029 0.796 14.117 0.849 26.291 0.32 25.315-1.36 28.382-2.05 30.065zm1.79-56.88c-0.108-1.694-0.249-2.819-0.315-3.205-0.619-3.499-1.995-7.574-3.066-8.763-21.915 0.001-43.821 0.001-65.734 0h-40.396c-1.064 1.189-2.452 5.282-3.068 8.796-0.065 0.372-0.203 1.491-0.313 3.184-0.207 3.35-0.813 13.865-0.872 26.802-0.359 26.797 1.546 29.775 2.158 31.182 0.063 0.191 1.799 0.279 2.07 0.279h106.23c0.271 0 1.956-0.088 2.022-0.281 0.606-1.404 2.521-4.386 2.163-31.18-0.04-12.921-0.66-23.457-0.86-26.814z"/>
    <path fill="url(#path9159_1_)" d="m164.84 14.286c-26.628-0.276-53.274-0.551-79.953-0.829-0.521 1.693-0.935 3.494-1.139 5.109 9.717-0.158 19.438-0.319 29.162-0.478-0.003 0 47.038-0.271 69.764-0.271 6.97-0.001-17.81-3.531-17.83-3.531z"/>
   </g>
   <path opacity=".7" d="m333.15 8.881c-4.354-0.275-6.624 2.777-6.889 5.938-0.261 3.162 1.488 6.432 5.176 6.59 8.25 0.215 16.009 0.104 29.976-0.475 2.593-0.104 6.411-0.314 10.987-0.604 13.034-0.771 28.532-1.984 43.019-3.326 0.478-0.045 0.956-0.09 1.431-0.135 13.642-1.3 26.132-2.728 34.896-4.023 8.513-1.275 13.479-2.438 12.58-3.244-2.114-1.061-24.576-1.375-49.577-1.402-1.938-0.002-3.887-0.004-5.843-0.002-15.94-0.008-31.958 0.086-42.121 0.145-0.461 0.004-0.821 0.004-1.073 0.006-9.342 0.096-26.537 0.532-32.56 0.532z" enable-background="new    " fill="url(#path9212_1_)"/>
   <polygon opacity="0.41" transform="translate(282.01)" points="43.274 58.705 164.16 60.718 164.16 78.267 43.514 81.343" enable-background="new    " fill="url(#polygon9350_1_)"/>
   <path opacity="0.24" d="m330.08 10.192c0.658-0.342 0.721-0.519 6.396-0.104-0.2 1.863-0.396 3.92-0.56301 6.153-3.395 0.2-1.152-0.016-4.285 0.271-1.729-0.01-3.731-1.41-3.347-3.737 0.388-2.327 1.14-2.242 1.799-2.583zm8.598 6.011c0.17-2.223 0.358-4.272 0.563-6.127 44.46-1.813 59.669-2.149 94.952-1.445 0.24 2.202-22.757 5.639-20.893 11.421-34.324 0.128-26.306-0.373-74.628-3.849z" enable-background="new    " fill="url(#linearGradient3508)"/>
  </g>
 </g>
</svg>
