<?xml version="1.0" encoding="UTF-8" standalone="no"?>
<svg xmlns="http://www.w3.org/2000/svg" width="166px" xml:space="preserve" height="163px" viewBox="0 0 166 163" baseProfile="tiny" version="1.2" y="0px" x="0px" xmlns:xlink="http://www.w3.org/1999/xlink">
<g transform="translate(-3,-6)">
	<rect height="122" width="150" stroke="#000" y="46" x="18" stroke-width="2" fill="#50DAD8"/>
	<rect height="39" width="41" stroke="#000" y="7" x="34" stroke-width="2" fill="#50DAD8"/>
	<path d="m18 65v35h-14v-35h14z" stroke="#000" stroke-width="2" fill="#50DAD8"/>
	<path d="m18 123v19h-14v-19h14z" stroke="#000" stroke-width="2" fill="#09B3B1"/>
	<path d="m166 64v91h-146v-62l146-29z" fill="#49FFFD"/>
	<path d="m166 109v44h-146v-15l146-29z" fill="#09E7E4"/>
	<path d="m166 130v37h-146v-16l146-21z" fill="#0ABCBA"/>
	<rect height="113" width="4" y="31" x="22" fill="#035958"/>
	<rect height="37.081" width="6.2" y="7.833" x="34.31" fill="#149A98"/>
	<rect height="36.953" width="5.936" y="7.96" x="68.541" fill="#149A98"/>
	<rect height="37.081" width="3.123" y="7.861" x="40.566" fill="#39EDEB"/>
	<rect height="36.888" width="12.123" y="8.039" x="56.181" fill="#6DF3F1"/>
</g>
</svg>
