<?xml version="1.0" encoding="UTF-8" standalone="no"?>
<svg xmlns="http://www.w3.org/2000/svg" width="114.77px" xml:space="preserve" height="122.88px" viewBox="0 0 114.768 122.879" baseProfile="tiny" version="1.2" y="0px" x="0px" xmlns:xlink="http://www.w3.org/1999/xlink">
<g transform="translate(-42.616 -38.561)">
	<path d="m148.92 47.577s7.672 3.765 7.672 8.409v88.222c0 4.645-7.672 8.408-7.672 8.408h-97.339s-8.175-3.764-8.175-8.408v-88.225c0-4.644 7.671-8.409 7.671-8.409h97.843z" stroke="#000" stroke-width="2" fill="#008080"/>
	<path d="m148.34 48.317l3.141 1.465v100.34l-2.87 1.464h-9.157l-0.123-103.26h9.01z" fill="#059997"/>
	<path d="m155.71 54.114v91.203c-0.793 1.881-2.992 3.801-4.153 4.576l-0.123-100.36 4.27 4.574z" fill="#0C5A59"/>
	<path d="m139.47 48.279l0.077 103.27h-8.147v-103.27h8.07z" fill="#00C0C0"/>
	<path d="m53.423 48.264l0.045 103.28c-2.539 0.58-4.4-1.196-9.266-5.81l-0.056-89.475c-0.547-2.729 6.01-9.324 9.277-7.991z" fill="#0C5A59"/>
	<path d="m131.38 48.28l0.034 103.27h-3.656v-103.27h3.63z" fill="#40FFFF"/>
	<rect height="8.292" width="91.483" stroke="#000" y="39.259" x="54.259" stroke-width="2" fill="#008080"/>
	<rect height="6.774" width="10.938" y="39.936" x="54.982" fill="#00C0C0"/>
	<rect height="6.955" width="8.126" y="39.878" x="137.14" fill="#0C5A59"/>
	<rect height="6.78" width="5.528" y="39.866" x="131.63" fill="#00C0C0"/>
	<rect height="6.821" width="4.111" y="39.818" x="127.54" fill="#40FFFF"/>
	<rect height="103.05" width="12.15" y="48.61" x="53.055" fill="#00C0C0"/>
	<rect height="8.292" width="91.483" stroke="#000" y="152.45" x="54.259" stroke-width="2" fill="#008080"/>
	<rect height="6.892" width="10.938" y="153.13" x="54.982" fill="#00C0C0"/>
	<rect height="6.955" width="8.127" y="153.07" x="137.14" fill="#0C5A59"/>
	<rect height="7.025" width="5.528" y="153.06" x="131.63" fill="#00C0C0"/>
	<rect height="6.821" width="4.111" y="153.13" x="127.66" fill="#40FFFF"/>
</g>
</svg>
